<svg xmlns="http://www.w3.org/2000/svg" viewBox="0 0 720.51 216.91"><defs><style>.cls-1{fill:#231f20;fill-rule:evenodd;}</style></defs><title>Asset 2</title><g id="Layer_2" data-name="Layer 2"><g id="Layer_1-2" data-name="Layer 1"><path class="cls-1" d="M720,201.07c0-5,1.38-23-.48-25.92-3.27-2.34-14.87-2.83-19.68-4.32-19.16-6-40.36-9.59-59.52-15.84-9-2.93-21.57-3.61-28.32-8.64h-.48v-1c7.31.48,14.13,2.84,20.16,4.8,6.34,2.06,13.26,3,19.2,4.8l8.64,1.44c9.05,2.71,19,5.46,28.32,8.16,4.66,1.34,8.39,1.25,13,2.88,5.76,2,12.8,5.05,19.2,5.76V.43H655.68c.06,2.06.36,5.45-.48,6.72-1.53.6-8.24-1.69-11.52-1.92V7.15l-1,1c-1.13-.42-.79-.18-1.44-1h-.48c.41,4.73-2.87,14.63-1,17.76.27,3,2.12,3.41,4.32,4.32-1,5.89-.54,13.28-.48,20.64,0,2.84.71,8.15-.48,10.08v1c-1.89.48-6.42,2-8.64.48l-1.44-.48c-.2-1.55-.18-4.68,1-6.24a7.32,7.32,0,0,1,1-4.32H637a5.19,5.19,0,0,0-.48-2.88c-.41-1.3-.75.41-1,1h-1.44c-.32-1.71-.63-2.15.48-3.36.19-5.77-2.28-5.44-5.76-7.2-.31-.83-.09-.47-.48-1,.21-2.94,1.16-3,4.32-2.88.65-3.41.25-9.23,1.44-12l2.4-.48V18.67c-1.2.55-1.38,1.22-2.4,1.92a6.5,6.5,0,0,1-1-1.92,4.83,4.83,0,0,1,0-4.32,10.33,10.33,0,0,0-.48-3.36c-4.92,0-7.21,1.24-10.56,1a6.89,6.89,0,0,0,1,2.88L621.6,22c-1.09.5-.77.07-1.92-.48l-.48.48v2.88c.83-.31.47-.1,1-.48h1.92l1,4.8c.75,1.34,3.18,3.55,4.32,4.8-.29,3-1.08,2.1-2.88,3.36C622.67,40,623,46.52,625,48c-.31.83-.09.47-.48,1-.77.46-.05,0-1.44,0-1.66,3.78,1,6.64.48,8.16-.32,1-1.11-.3-1.44,2.4,2.43-.32,2.48-1.29,3.84,0,1.44-1,1.08-3.65,2.4-4.8l.48-.48,1.44,1.44c.33,1.43.92,3.94,0,5.28v1c-2.27.49-9.59,1.28-11,.48a8.65,8.65,0,0,0-2.88.48c2.27,6,23.36,6,29.76,7.2,3,.55,7.11-2.07,9.12-1.44,2.68,1.41,1.92,6.09,1.92,10.08,0,4.45,0,21.58,1.44,24,.07,2.14.13,3.37-1,4.32-.49.38-.12.17-1,.48-.86-.91-2-1.5-2.88-2.4-3,.48-7.38,1.74-10.56,2.4-2.3.47-7.5-.52-9.6-1-3.53-.74-6.11.12-9.12,0a5.74,5.74,0,0,0,1.44,1v1c-1.9.48-4.68,1.91-6.24,1-1.77,0-4.25.21-5.28-.48h-.48c.89-1.69,3-1.29,4.32-2.4h.48V106a6.43,6.43,0,0,1-3.36-.48c-3.65-.15-4.53.19-5.76,2.4-5.9,0-9.76.56-14.4.48.63,1.16-.22.34,1,1v1.44c-5.46,1.11-16.54-.47-25.92-.48.57.38,2.31.58,2.88,1,3.64,0,8.69-.48,11.52.48v1.44c-3.69.82-7.76,1.56-11.52,2.4-3,.66-7.23,0-9.6.48h-11c-2,.54-3.52,1.73-6.24,1.92.29-2.33,1.29-2.53,2.88-3.36v-.48c-6.25,1.24-5.08-.45-8.64-1.92-4.28-1.78-10.88,1.87-13.92,0h-1.44c-.32,2,0,5-.48,6.24-.79,1.28-4.86,1.87-6.72,1.92l-.48.48v1c.39.49.18.11.48,1,2.22-.07,3.58-.42,4.8-1.44a7.3,7.3,0,0,1,2.4.48v4.32a40.74,40.74,0,0,0-9.12,2.88,26.78,26.78,0,0,1-2.4,5.28c-.83-.31-.47-.1-1-.48s-.12,0,0-.48c-.84-1.27,0-.67-1.44-.48.39-2.19,1.53-3.16,2.88-4.32-.41-.32-1.51-.65-1.92-1-1.7.31-1.63.33-2.4,1.44h-.48v.48l2.4-.48v1.44l-1.92,1a6.2,6.2,0,0,1-.48-1.92c-1.61.4-1.15.36-2.4-.48-1,1.52-2.51,1.7-3.84,2.88-2.07,2-3.7,9.51-4.8,13.92-.72,2.87.4,5.33-1,7.2-.49.38-.12.17-1,.48-1.42-3.84,1.29-20.32,3.84-23v-1l-1,1c-1.5-.29-1.17-.09-1.92-1-.39-.5-.18-.12-.48-1,3.26-3.38,3.91-7.68,8.16-10.56,2.21-1.5,6.09-1.74,7.2-4.32,3.72.87,2,1.09,6.72.48v-1c-10.17.09-14.16,1.76-19.68,9.12-1.8,2.4-5.19,3.88-5.28,6.72l-1.44-.48c.24,2.15.45,3.32-1,4.8-.52.36-.44.3-1.44.48-1.24,6.42-5.54,13.28-7.68,19.2-.58,1.61-2.69,8.84-2.4,10.08.09.39,1.43,1.53,1.44,2.4,0,1.87-2,3.64-2.4,4.8s.37,6.16.48,7.68h-1.44c-.56-4.78-2-14.76-.48-20.16.79-2.74,3.36-5.34,4.32-8.16,1.07-3.13,1.06-6.76,2.88-9.12v-1.92c-2.74,3.28-4.48,8.9-5.28,13h-1.44c.06-3.61,4.57-14.46,6.24-16.8.06-4.55.51-5.73-1.44-7.2-1-2.16,2.57-7.38,4.32-8.64v-.48a8.5,8.5,0,0,0-2.4,1.44v.48l-1-1c-2.2,1-4,5.29-4.32,8.16H481c-.19,1-.12.92-.48,1.44v1c-1.19-.72-.89-.6-1-2.4-2,3.07-1.4,16.8-3.36,20.64v1c-1-.19-.93-.12-1.44-.48-.61-1.35.82-5.1,0-8.64-.61-2.63,0-15.23,1.44-17.28v-1c-.83-.31-.47-.1-1-.48-1.23,1.25-2.15,3.6-2.88,5.28-1.79-.34-1.7-.71-2.88-1.44a14.52,14.52,0,0,1,3.84-7.68c.52-.37.44-.3,1.44-.48.66-7.13,8.85-7.71,14.88-9.6l.48.48c-.58,1.2-1.09,1.09-1.92,1.92h-1c1.79,1,3.76-.71,6.24-1-.52-.37-.44-.3-1.44-.48V107c1.54.35,1.43,1.15,2.4,1.44,2.89.86,5.29-1.72,8.16-1.92.31-.93.44-3.5,1-4.32a7,7,0,0,1,5.28-1c6.58,1.64,13,1.56,20.16,1.44a23.43,23.43,0,0,1-1.92,1.44v1l23.52.48c4.05-.38,7.73-2.24,11,0,5.07.28,7.3.18,8.16-3.84,1.6-.37,5.21-1,6.72,0h1c-.31.83-.09.47-.48,1-.94.64-3.13.54-4.8.48,2.74,2,22.31-1.38,25.44-3.84.83-.31.47-.1,1-.48-2.09-.59-4.64-1.9-6.72-2.4l-6.72,1c-1.55-.6-6.9-1.93-9.12-.48a4,4,0,0,1-2.88-1.44h-.48v-1c.83-.31.47-.1,1-.48,3.9.06,12.59,1.29,15.36-.48-.52-.68-.09-1.41-1.44-2.4.45-1.32,1-.72,1.44-1.44.19-.32-2-2.54-1.44-4.32.2-.7,1.71-1.86,1.92-2.4l-.48-4.8a20.94,20.94,0,0,0,1-3.84c-2.47-.48-4.85-2.26-7.68-1.44-.66.19-.69,1.22-2.4,1s-4.68-1.36-6.72-1c-2.4.47-4.47,1.73-6.24,1.44-.75,1.62-1,2.72-2.88,3.36l-.48.48v-.48c-2.08-1.08-1.93-5.15-2.88-7.2a9.06,9.06,0,0,0-5.28,2.88,7.18,7.18,0,0,1-1.92-.48,41.69,41.69,0,0,1-.48-6.72c-3.94,1.18-7.68,3.39-11.52,4.32-2,.48-1.67-1.25-3.36-.48-.87.62-.36.29.48,1v1c-.75,0-1.75.55-1.92.48-1.36-.6-1.65-2.69-3.84-1.44-4.11-.66-6.25-9.73-5.28-15.84a59.79,59.79,0,0,0,0-13.44c-.37-2.3,1-5.51.48-8.16-2-10-.62-22.13-.48-33.12-3.7,0-7,.2-9.6,0-.37,3.4-1.42,6.86-1,9.6s1.24,6.65,1,7.68c-.89,3.19-.6,15.35-.48,20.16.07,2.55.91,12.39,0,13.92a6.91,6.91,0,0,0,.48,1.92h5.76v1.44h-5.76v1h5.28v1.44a5.19,5.19,0,0,0-2.88.48,8.62,8.62,0,0,1-6.72-4.32c-.4-1.18.19-7.58-.48-10.56-1.13-5-3.54-8-4.32-13-2.3-1.27-8.6-6-12.48-2.4-1.73.75-1.34,2.09-2.4,3.36-1.16.33-.3.19-1.44-.48L491,32.11c-.45,7.26-2.68,11.07-3.84,15.84-.88,3.6,1.55,7.12-2.4,11.52.17,2.79.16,1.44,1.44,2.4l.48.48h-.48c-.75,1-5.15,1.83-6.72,3.84-2.27,2.91-3.33,9.23-4.32,12.48-.37,1.22-2.14,3.56-2.4,4.8-.65,3.12,2.11,9.84,1,12-.31.83-.09.47-.48,1-1,.64-6.36-1.45-8.64,0-2.75.14-2.92,1.11-3.84,2.88-5.06-1-7.43-3-13.44-2.88v1.44c4.14,1,8.3,2.76,13,2.88v2.88c-3.52.25-8-1.91-13.44-1.92-1.62,0-6-.78-6.72-.48-.94.4.22,1.62-1,1l-1-1a37.48,37.48,0,0,0-2.4,5.28c-.44,1.57,1.1,2,0,3.36l-1.92.48c-.7,1.06.06,4.19,0,4.32-.65,1.31-.66,1.21-2.4,1.44.17-4.81-.54-6.15-1-10.56-.39.49-.18.11-.48,1-2-.52-5.74-8.75-6.24-11-1.77,0-4.25.21-5.28-.48h-1V93.55h5.76c-1.1-.74-3.9-.55-5.76-.48-.06-1.38-.34-.7,0-1.44.83-1.36,3.11-1.09,5.28-1-.83-1.36-3.11-1.09-5.28-1l-.48-.48a33.53,33.53,0,0,0,0-6.72c-6.87.93-16.14.57-23,.48.08,3.35.67,7.61,0,9.12a11.77,11.77,0,0,1-1,4.32h-2.4c-.17-2.15-.8-3.41,0-4.8.71-1.19.59-.89,2.4-1v-.48l-2.88-1c0-3.58.23-6.69,1-7.68-.09-.38.15-.32-1-1,.54-1.11.45-.88,1.44-1.44-.52-.37-.44-.3-1.44-.48.52-3,.49-.83,0-3.84h1.44c-.52-.37-.44-.3-1.44-.48.35-1.74-.05-1.34,1.44-1.92-.37-.33-1.07-.64-1.44-1l-.48-.48a5.86,5.86,0,0,1,1.92-.48V70a5.49,5.49,0,0,1-1.44-1l-.48-.48a5.86,5.86,0,0,1,1.92-.48c-1.23-3.38-1.17-10-.48-11l.48-1.44a38.33,38.33,0,0,1,8.64-1l.48-1.44h.48v-1l-2.4-.48c.49.38.12.17,1,.48v1.44c-2,.42-5.3.83-6.72.48l-.48.48a15.65,15.65,0,0,1,3.74-5.13c-.12.11-.25.23-.38.33-1.1.85-2.52,1.35-3.36,2.4-1.16,1.44-1.63,3.44-2.88,4.8v.48h-.48l.48-5.28h1.44c-1.29-2.2.41-6.85.48-12-2.25,3.44-1.11,11.33-3.36,14.88-.31.83-.09.47-.48,1-.31-.83-.09-.47-.48-1a18,18,0,0,1,.48-5.28c.76-.59-1.78-10.62-2.4-13.44s.87-5.15,0-6.72c0-.11-2.88,2.19-4.8,1-2.27-.92-2.36-3.62-3.84-5.28.19-1,.12-.93.48-1.44,1.22-3.15,4.64-2.23,8.16-1.92-1.72-2.68-7.25-.78-10.08-2.4H373c1,2.64,3.28,5.16,4.32,7.68.78,1.88.38,2.9,1.44,4.32.92,1.22,2.79.88,3.84,1.92.2.19,2.73,5.88,2.88,6.24.8,1.87,2,7,1,8.64v1h-9.6c-.66-.46-5.58-10.58-5.76-12-1.76.32-2.05.79-3.36,1.44,2.73,3.4,6.38,4.47,7.68,9.6l.48.48c-5.08,1.71-14.12.54-20.16.48v1c6.14-.45,13.76-.52,20.64-.48,3.26,3.69,7.31,6.36,10.56,10.08-.29,2.55-1,3.86-1,7.2h1.44l.48.48c0,6.31-.64,16.47.48,19.2a8.7,8.7,0,0,1-.48,2.88h-26.4l.48,1h19.2c2.44,0,5.7-.58,6.72,1,.71.88.2,2.22,0,4.8-4.62.06-19.33,1-21.6-1H364.8c.65,2.37,1.85,3.8,2.4,6.24,3,0,11.47-.62,13-1.92,2.59,0,5.83-.16,7.68.48,0,5.42.39,11.79,0,15.84l-.48.48H385c-.25,2.21-.76,2.1-1,4.32l-.48.48c-1-.19-.93-.12-1.44-.48-.36-.52-.3-.45-.48-1.44-2.53-.24-2.07,0-4.32.48.19-1,.12-.93.48-1.44.94-1.8,1.23-.69,2.4-1.44.39-.5.18-.12.48-1a4.58,4.58,0,0,1-1.92-1.44c-1.4,1-1.38,4.13-2.88,6.24v.48h-1c-.67-3-1.48-16.68,1-17.76-.63-1.1-1-.75-1.92-1.44-2.27-.06-6.25-.46-7.68.48-1,1.51.52,4.89-.48,6.72-.53,1-1-.44-1.44,1.92-.83-.31-.47-.1-1-.48-.71-.54.19-.59-1-1.44.71-1.19.2-.76,1.92-1-.62-1.08-1.25-1-2.4-1.44a2.91,2.91,0,0,1,0-2.4l-1.44-.48A26.67,26.67,0,0,1,359,107c-.49.38-.12.17-1,.48l-.48-.48c.19-2.43,1.91-10.36,1-12-.83-1.44-3.84-1-5.28-3.36-1.17.63-.34-.23-1,1h-1c.63-1.17-.22-.34,1-1-2.18-1.79-5.12-.32-6.24.48-.25-1.2-.08-.41,0-1.92-2.92,1-6.21,0-8.16,2.4-1.5-.54-1.43-1-2.4-1.92-.37-.53-1.86,1.09-2.4,1.92-2.7-1-4.61-2.46-6.24,1a7.18,7.18,0,0,1-1.92-.48v-2.4l-5.76-.48a9.1,9.1,0,0,1,2.88,4.8c-.39.49-.18.11-.48,1-2.83-.23-3-1.3-2.88-4.32-1.5.92-2.42.1-3.36.48l-1.44.48c.37,2.18,1.13,2.6,1.44,4.8-1.44-.07-1.34-.36-1.92,0h-1c.38,1.25.6,1.13,1,2.4l-1,1c-.49.38-.12.17-1,.48v-.48c-.86-1.45.7-5,0-7.2-.18-.58-.78-.59-1-1.92-1.2.56-2.05,1.3-3.36.48-.39.56-.39.8-.48,1.92l-3.36,1c-.49-.39-.12-.18-1-.48,1.05-4.13,5.14-3,8.16-5.28,1.07.55.72.69,1.44,1.44v.48c1.19-.38.94-2.12,1.44-2.88v-1c-4,.89-7.33,2.83-11.52,3.84l-8.64-.48c-2.39.49-5.77,1.41-8.16,1.92l-2.4-.48-.48,1.44c-3.88,2.13-9.25,1.54-13.92,1.44.49.38.12.17,1,.48-.63,1.16.22.34-1,1s-6,0-6.72.48c-2.65-.06-2.89-.55-2.88-1.92-1.6.2-4.79-.18-6.72.48-.76.26-1.64,1.66-2.4,1.92-3,1-6-1.2-7.68-1-3.54.49-4.19,1.33-8.16.48l-.48.48c.54,1.39.7,1.3,1.92,1.92a2.64,2.64,0,0,1-1.44,1.92l-.48.48a21.94,21.94,0,0,0-1.92-2.4c-.51-1-.29-1.76,1-2.4v-.48c-5.62,0-11.27.09-16.8,0a9.06,9.06,0,0,0,1.92,1L217,98.83c-1.77-.06-4.25-.21-5.28.48-1-.19-.92-.12-1.44-.48-.36-.52-.3-.45-.48-1.44,2.62-.07,2.45-.46,3.84-1.44V95c-2.46-.06-3.8,0-4.32,1h-1c.45-1.06.55-1.38.48-1.92v-1a33.54,33.54,0,0,0-1.92,3.84h-1L205,94c-1,.19-.93.12-1.44.48-.3.48.38,2,.48,3.84l.48.48h1.92c.16,3.85,1.52,4.12,2.4,6.72a133.18,133.18,0,0,1,4.8,22.08c-2.29.33-5.18,1.58-6.24,1.44-1.17-.64-.34.22-1-1-.39-.5-.18-.12-.48-1,1.59-1.08,2.13-2.3,4.32-2.88-.34-2.37-2.87-15.19-3.84-16.32-.82-1.53-.62-.23-1.44-1-1.59-1.31-1.05-2.11-1.92-4.32-1.44-3.68-4.12-5.56-7.68-7.2-.06-1.46.11-1.75,0-2.4-.93-4.13-5.82-4.3-6.72-8.64a6.12,6.12,0,0,1-1.92.48l-1.92-3.36c-.23-.41,1-4.78,1.92-5.76v-.48c1.24.56,1.65,1.27,2.88,1.92-.41,1.55-.83,1.86-1,3.84,1.76,1.59,2,3.23,3.36,5.28s4.72,2.56,6.24,4.8c2-.11,2.92-.32,3.84-1.44,0,0-1.63-4.42-2.4-5.28-.56-1.3-7.54-5.59-9.12-6.72a7.16,7.16,0,0,1,1-1.92c2.12,0,3.29,0,4.32,1h.48c-.8-3.12-2.41-3.67-3.84-5.76-1.79-2.62-2.47-5.65-4.32-8.16-1.3-1.76-2.83-1.48-3.36-4.32-2-.37-3.75-.61-4.8-1.92a10.06,10.06,0,0,0-3.36.48c.83,1.55,1.87.8,2.88,1.92.83.91-.21,2.48,0,2.88,1.11,2.08,6.34,6.06,4.8,9.12-.93,1.44-.5.65-1.92.48.19,3.08,1.58,3.93.48,5.28-.49.38-.12.17-1,.48-4.13-4.41-3.87-9.31-6.24-15.36-2.22-5.68-7.51-10.25-9.6-15.84l4.8-1c-2.37-1.46-5.56.79-7.2,0h-1V43.15c.95,0,2.2-.1,3.57-.2a6.48,6.48,0,0,1-2.61-.76c-.44-.92-.19-.36,0-1.44h4.46a10.75,10.75,0,0,1-4.94-1c-.68-.61-.19-3.54,0-5.28l.48-.48c2,.06,5,.31,6.24-.48l.48.48c3.11,0,7.26-.32,9.6.48-.42,1.13-.18.79-1,1.44.49.38.12.17,1,.48-.34,1.5-.32,1-1,1.92.12.46-.14.21.48.48L179,40.27c-2.13,0-5.66.41-8.94.48H179l.48.48v1c-.87.18-2.33.4-4,.59a7.5,7.5,0,0,1,3.08.85c.75,1.19-.49,1,1,1.92-.31.83-.09.47-.48,1-1.66,1.09-6.57.55-9.12.48v.48c3,0,6.91-.28,9.12.48-.31.83-.09.47-.48,1-1.33.88-5.05.55-7.2.48,1.41.94,5.43.55,7.68.48l.48.48v1a15.79,15.79,0,0,1-6.24,0v1h5.28v1.44H175.2c2.24,1.46,7.3,1,8.64.48.51.09,3.32,1.45,3.36,1.44l1-1.44c2.57-.82,4.32.76,6.72,0l.48.48v1a27.73,27.73,0,0,1-5.76.48c1.25.83,4.67.55,6.72.48-.42,1.54.26.74-1,1.44.75.6,2.12.85,2.88,1.44.94,1.29,1,3.55,1.92,4.8.87,2.06,3.64,3,5.28,4.32,1.13-.42.79-.18,1.44-1h1l-1-1c-.57-1.4.45-.24.48-1.44,0-1-1-.22-1-.48-.06-1.47.49-1,1.44-1.44-.37-.33-1.07-.64-1.44-1-.44-1.15-.45-.82,1-1.44-.52-.37-.44-.3-1.44-.48.15-1,.11-.93.48-1.44h.48c.58-2.12-1.51-.43,0-2.88l-1.44-.48c.56-1.36.06-.91,1.44-1.44v-.48h-2.4V52.27c1-.19.92-.12,1.44-.48h.48v-.48c-3.74.06-16.18,1-17.76,0h-5.28v-1a18.69,18.69,0,0,1,5.76-.48,5.19,5.19,0,0,0-2.4-1V47.47H206.4c-2.57-1.64-17.74-.55-22.08-.48V45.55h3.36v-.48a5.29,5.29,0,0,0-3.36,0v-.48c-.39-.5-.18-.12-.48-1a20.65,20.65,0,0,1,6.24-.48c-1.1-.74-3.9-.55-5.76-.48l-.48-.48c.38-2.59.53-.92,0-3.36a15.07,15.07,0,0,1,4.8-.48c-.88-.57-3.43-.42-4.32-1,0,0-1.27-6.27-1-7.68.55-.51,1.2.37,1-1h-1c-.29-1.39.89-2.49,1-3.36.34-4.5-.66-6.32-1-12-3.36.09-4.32,1.35-6.24,2.4C173.27,11,169.46,13,165.6,9.55c-.38-.72,0-1.65,1-2.4,1.22-.68,2.37,1.39,3.36,2.4l.48.48.48-1c.43-.62.74-5.1,0-6.24-1.41-2.66-5-2.4-9.12-2.4H0v216H376.32c0-1.56.24-2.7-.48-3.84.26-2.54,1.42-3.12,2.88-4.32v-1.44c-1.1.63-.75,1-1.44,1.92v.48h-1c-.44-2-1.26-7.72,0-9.6v-1h1c.8,1.8.74,2,.48,4.32,3,.48,5.79.95,7.68,1.44,4.25,1.08,9.06-2.24,11.52-.48,7.08,0,5.63-2.91,9.6-4.32,1.68-.6,4.81.29,5.76.48,2.66.51,6.27-.57,9.12-.48,1,0,2.41,1.6,2.88,1.44s.9-.76,1.92-1c2.06,2.24,1.68,4.45,3.36,6.72.47.64,1.27.45,1.92,1,2,1.54,4.61,6,5.28,8.64h1.44v-1.92c7.75,3.75,27.14,2,38.4,1.92.11-1.12.09-1.36.48-1.92V214c1.57.55,1.73,1,2.4,2.4h28.32v-1.92h1.44v1.92H720v-9.12a8.82,8.82,0,0,1-6.24-2.88c-.39-.5-.18-.12-.48-1,.39-.5.18-.12.48-1C716,201.87,716.81,201.05,720,201.07ZM692.64,23.47l4.32-1V24c-.83.31-.47.09-1,.48h-3.36Zm-2.88.48v1.44l-19.68,3.36v-.48c-.39-.5-.18-.12-.48-1C674.47,25.54,684.09,24.06,689.76,24Zm-31.2,14.88h-1.92c-1.1-5.46-2.12-23.07.48-26.88.44-1,.42-.7,1-1.44a2.58,2.58,0,0,1,1.44,1.92c.33.58,1.78,19.29,1,22.08A34.16,34.16,0,0,1,658.56,38.83Zm.48,83c1.11.11,1.35.09,1.92.48h1c-.22,2.49-1,3.63-1.44,5.76a5,5,0,0,1-2.4-1A11.17,11.17,0,0,1,659,121.87Zm-1.92-3.36h1V120c-2.44.45-9.13-.26-10.56.48-.36-.52-.3-.45-.48-1.44C649.56,118.71,654.49,116.75,657.12,118.51ZM568.32,94v1.44c-1.2-.71-.56.11-1-1.44Zm-6.72,1v1.44c-.36-.52-.3-.45-.48-1.44Zm-3.36.48v1.44c-1.2-.71-.56.11-1-1.44Zm-7.68,1a9.57,9.57,0,0,1,3.36-.48v1.44h-3.36Zm-3.36-8.16h1c-.19,1-.12.92-.48,1.44-1.45.61-3.37-1.08-3.36-2.4A8.08,8.08,0,0,1,547.2,88.27Zm-5.76-14.4,2.4,1.44v1.44C541.68,75.85,541.28,75.91,541.44,73.87Zm5.28,27.36h3.36c-.94,1.5-3.34,1-4.8,1.92h-13v-1a10.38,10.38,0,0,0,3.36-1.92c1.09.34,1.32,1.24,1.92,1.44C540.27,102.58,544.08,99.6,546.72,101.23Zm-9.6-21.6,3.36-.48v2.4a16.23,16.23,0,0,0-2.4,1.44c-1-.19-.93-.12-1.44-.48C536.29,81.88,536.83,81,537.12,79.63Zm-4.8-7.2h1.44c.06,1.37.34.7,0,1.44.62,1.07,1.25,1,2.4,1.44v1a3.25,3.25,0,0,0-1,1.92h-1C533.15,76.15,532.09,74.53,532.32,72.43ZM530.4,84h1.44v1.44H530.4ZM519.84,47h1v1.44C519.6,47.72,520.24,48.54,519.84,47Zm1.44,5.76h-1v-1h1Zm-1-27.36c-.49.38-.12.17-1,.48v-.48c-.79-1.42,0-3.8.48-5.28l1.44.48C521.28,22.61,521.17,24.24,520.32,25.39Zm6.24,35.52v1h-1.44l.48-1.44Zm-4.8-2.4h3.36c-.45,1.15-.53.75-1,1.92-1-.19-.93-.12-1.44-.48h-1Zm-7.2,15.84c-.83.42-.61.42-1.44,0Zm-4.8-1.44a6.38,6.38,0,0,0,1.92,1l-.48.48v1a5.49,5.49,0,0,1-1.44-1C509.32,73.43,509.57,74,509.76,72.91Zm0,3.36c.33-.26,2.68.56,4.32.48.59-1,.31-.91,1.44-1.44-.19-1-.12-.93-.48-1.44v-1c1.2.7.56-.12,1,1.44h2.88l.48.48c-.45,2-1.83,4.74-3.36,5.76-.6.36-.46,0-1.92,0a6.2,6.2,0,0,1-.48-1.92l-1.92.48a6.2,6.2,0,0,1-.48-1.92,3,3,0,0,1-2.4,1C509.09,76.69,508.88,77,509.76,76.27ZM386.88,57.07c-3.65-.74-5.9-4-8.64-5.76v-1l.48-.48c3.19-.06,6.27,0,8.16,1ZM366.72,97.39h3.84A4,4,0,0,1,366.72,97.39ZM188.16,52.27h10.08v1.44H188.16ZM183.84,48h1v1h-1ZM165.6,31.15h-2.4l.48-1.44a6.12,6.12,0,0,0,1.92.48Zm3.84-.48-3.36.48V29.71l2.4-.48,1,1ZM163.2,18.19h16.32v.48c.76,1.53-.22,10.66.48,11-.31.83-.09.47-.48,1-.12,0-10.08-1.76-11.52-3.84-.48-1,0-1.21.48-2.4a22.79,22.79,0,0,0-5.76-2.88A10.33,10.33,0,0,1,163.2,18.19ZM157,24.43c.83-.31.47-.1,1-.48h1v1.44a5.86,5.86,0,0,0-1.92-.48Zm-9.12,10.08v11L146.4,46l-.48-1c-.16-.25-1.13-7.86-.48-9.12a5,5,0,0,1,1-2.4Zm-1-10.56c-1.84-.49-2-1.6-2.88-2.88l1.92-1.92h1l.48,2.88h-1.44C146.56,22.94,146.56,22.43,146.88,24Zm-2.4-19.68c1,.19.92.12,1.44.48h1c-.31.83-.09.47-.48,1v.48c-1.82-.55.19-.59-1.92-1ZM144,3.79v1c-1.5-.29-1.17-.09-1.92-1Zm-3.84,11a5.19,5.19,0,0,0,2.88-.48c.43.94-.48,2.74-1,3.36l-.48,1a7.47,7.47,0,0,1-1.92-1A8.6,8.6,0,0,1,140.16,14.83Zm-4.32,12c1.87-.06,4.65-.26,5.76.48h1v1.44c-2.07.06-5.45.36-6.72-.48-.39-.5-.18-.12-.48-1Zm-13.92,47,2.88-.48v1.44l-1,1h-1.92ZM110.4,29.23c-.83.42-.61.42-1.44,0ZM85,9.55c1.85,0,2.85.16,3.84,1l1.44.48c-.11,1.11-.09,1.35-.48,1.92-.58,1.2-1.09,1.09-1.92,1.92-2.46.12-6.72.59-7.68-1-.39-.5-.18-.12-.48-1C81.43,11.9,83.59,11,85,9.55Zm-4.32,11,1.44,1c-.29,1.49-.08,1.16-1,1.92l-.48.48-1-1A5,5,0,0,1,80.64,20.59Zm-40.8,119c-.83.31-.47.09-1,.48l-2.4-.48c-.06-1.38-.34-.7,0-1.44.44-1,.42-.7,1-1.44a10.63,10.63,0,0,0,2.4,1ZM82.56,85.87c-.74.28-1.13,1.13-2.4,1.44l-1-1c.16-2,.92-3.87,0-5.28-.28-5.42.32-5.55,4.32-6.72-.42-3-2-3.37-4.32-4.32,0-8.25-.43-18.89.48-25,.49-3.25-.58-8.55,1-11v-.48h1a29.74,29.74,0,0,1,.48,6.24c1.68,0,3.84-.16,4.8.48,1.23-.61,1-.5,1.44-1.92,1.57-.13,5.12,1.32,7.2,0,.34-.22.53-1.64,1-1.92L99.36,36c1.51-.8,1.65-2.25,3.84-2.88.3-.38,0-.12.48,0,4.12,2.24.13,11.57,1.92,14.88a8.49,8.49,0,0,0,1,4.8l3.84.48c-.36-2.71-1.67-3.35-2.4-5.28-1.56-4.16-.8-14.46,1.44-16.8.92-1.56,3.39-1.82,4.8-2.88,1.71.22,1.22-.25,1.92,1,.56,1.39-1.77,4.34-1,6.72l1.44,1.44c1.89,5.25.48,17.48.48,24,0,2.63.63,7.36-.48,9.12v6.72l-7.2,2.4L102.24,84,96,84.43c-1.77.53-4.18,2.27-6.24,2.4C88.29,86.92,85.27,84.82,82.56,85.87Zm27.36,11a6.91,6.91,0,0,1-.48,1.92c-5.21-.55-12.66,1.1-16.32-1,.19-1,.12-.93.48-1.44,1.57-3.53,4.92-.5,6.24-5.76a8.49,8.49,0,0,0,2.88-1,18.71,18.71,0,0,0,3.36.48C107.07,93.26,106.67,96,109.92,96.91Zm-7.68,18.24h-1a6.2,6.2,0,0,1-.48-1.92h1.44Zm2.4-10.08a46.43,46.43,0,0,0-1.44,5.28,11.91,11.91,0,0,1-6.24-.48l-1.44-5.28c-1-1.29-2.11-1.82-4.32-1.92v-1c4.17-1.65,14.21-.25,17.76-2.4,2.47-.07,7.05-.57,8.64.48h1c-.19,1-.12.92-.48,1.44-1.27,2.72-6.6,4.76-9.12,6.24.85,1.82.26,2,0,4.8l-1.44.48a5.25,5.25,0,0,0-1.44-1c-.25-1.37-.23-5.1-1-6.24ZM112.8,144a22,22,0,0,1-6.24-.48c-.31-.83-.09-.47-.48-1,0-4.55,1.61-4.22,3.84-6.24.71.58.86,1.24,1.44,1.92-.52,1.45-.44,1.42-1.92,1.92.66,1.72,1.91,2,3.84,2.4Zm11.52-19.2c-.94,1.94-4.35,2.93-6.72,3.36-.19,5.92,3.15,5.85,6.72,7.68v1.44c-2.91.55-7.76.44-10.08,1.44l-1-1c1.39-5.26,2.66-13.66,4.8-18.72a14.64,14.64,0,0,0,5.28,0C123.82,120.82,125.07,123.4,124.32,124.75Zm-5.28-12a28.9,28.9,0,0,1,2.88-12.48c1,1-.18,10.24-1.44,12v1h-1Zm7.68-13.44a18,18,0,0,1-5.28-.48V96.91c1.57-.24,3-.86,4.32,0h1Zm2.88-82.56v1h-2.88a27.52,27.52,0,0,0,1-6.72h1.44l.48.48A49.53,49.53,0,0,0,129.6,16.75Zm2.4,97h-1.44l.48-1.92h1.44Zm1-63.36s1.33-17.11,1.44-17.28c.44-1,.42-.7,1-1.44,3.25.18,4.64,1.27,7.2,1.92.64,2.56,2.7,9.09.48,12.48-1.5,3.4-2.39.14-5.28,1.44-.78.35-2.25,2.66-2.88,3.36H133Zm10.56,23a7.63,7.63,0,0,1-.48,2.4,5,5,0,0,1-2.4-1c.21-1.78.27-1.42,1-2.4ZM137.76,84c-.52.36-.44.3-1.44.48.13-2.45.69-3.16,1-5.28h1.44C138.39,80.87,138.5,82.74,137.76,84Zm1.92-8.16-.48.48c-4.45-1-6.21-8.6-4.32-13h1.44c.71,1.47,3.84,7.68,3.84,7.68-.61,1.22-.5,1-1.92,1.44C138.56,74.18,139,74.48,139.68,75.79Zm4.8,27.36c-.39.49-.18.12-.48,1h-1.44c-.1-1.83-.22-.88.48-2.4l1.44.48Zm4.32-11h-1.92c-1.21,1.08.22,2.2-1,3.36-.68.37-.84-.06-1.92-.48a9.56,9.56,0,0,0-1-1.92c0-3,1.05-3.72,2.88-4.8-.83-1.36-3.11-1.09-5.28-1-.06-1.38-.34-.7,0-1.44.69-1.39.91-1.35,2.88-1.44-.17-2.79-1-3-1.92-4.8a15.13,15.13,0,0,0,6.24-6.24c1.71.22,1.22-.25,1.92,1h.48c.21.94-.21.61-.48,1,.1,3.53-.45,3.87-2.88,4.8.63,3.85,2.8,6.87,3.84,10.08Zm2.88-46.56-.48.48v-.48s-1.88-.11-1-.48l.48-.48h1.44C151.85,45.42,152.07,45.06,151.68,45.55Zm2.4-1.92h1.44v1h-1.44Zm2.4,92.64c-.56.38-.8.38-1.92.48v-1.44c1.59-1.08,2.13-2.3,4.32-2.88.49-.39.12-.18,1-.48l.48.48C159.93,134.62,158.39,135.71,156.48,136.27Zm26.88-49.44c-.83-.31-.47-.1-1-.48s-.3-.45-.48-1.44c1,.19.92.12,1.44.48.83.31.47.09,1,.48s.3.44.48,1.44C183.81,87.12,183.88,87.19,183.36,86.83Zm14.88,19.68a4.15,4.15,0,0,1-2.4-.48h-.48c.56-1.07.7-.73,1.44-1.44h1.44l.48.48Zm3.36,21.6v-1.92c1,.19.93.12,1.44.48,1.17.63.34-.23,1,1h.48c-.31.83-.09.47-.48,1s-.12.17-1,.48A5.25,5.25,0,0,0,201.6,128.11Zm2.88,3.84-.48.48-.48-1.44H205C204.65,131.82,204.87,131.46,204.48,132Zm96-33.6h1l-.48.48v1h-1Zm-1.92.48-.48,1.44c-3.3.12-2.6-.62-5.76-1V97.87c1.45-.5,1.42-1,2.88-1.44.3-.38,0-.12.48,0h2.88C298.79,97.76,299.14,97.81,298.56,98.83Zm-3.36,25-.48.48v.48c-1.17-.51-.77-.51-1-2.4h1.44c-.49.38-.12.17-1,.48Zm-1.92-10.56h1v1.44c-.39-.5-.18-.12-.48-1-.36.51-.3.44-.48,1.44-1.84-1.07-.94-1.33-2.88-1.44a19.1,19.1,0,0,1,1-3.84l1.44.48c-.29,1.49-.08,1.16-1,1.92C292.58,113.81,292.11,112.25,293.28,113.23Zm-.48,8.16c.93-.51.56-.16,1.92,0-.52.36-.44.3-1.44.48v1.44h-.48a5.32,5.32,0,0,0-1-1.44C292.33,121.48,292,121.69,292.8,121.39Zm1.92-8.16a6.2,6.2,0,0,1-.48-1.92c.83.31.47.09,1,.48l.48.48h-.48C294.89,113.1,295.11,112.74,294.72,113.23Zm-.48-2.88h-1c.37-1.63.78-1.66,1.44-2.88h1C295.23,109.25,294.81,108.78,294.24,110.35ZM290.4,94c1.12-.24.71-.07,2.4,0l.48-1.44a12.12,12.12,0,0,1,2.4,1c-.31.83-.09.47-.48,1-1.06.83-2.84,1-3.84,1.92h-1.44L289.44,95Zm0,6.24,1.92.48-.48,1.44c-.83.31-.47.09-1,.48H289C289.48,101.28,289.85,101.55,290.4,100.27Zm-1,20.64v1.44c-.36-.52-.3-.45-.48-1.44Zm-4.32-19.68H287v1.44h-.48c-.52.36-.44.3-1.44.48Zm.48,26.4c1.59.58,1.47,1.27,2.88,1.92-.31.83-.09.47-.48,1s-1.86-.54-2.88-1A6.73,6.73,0,0,1,285.6,127.63Zm-1.92-32.16h1v1h-1Zm-.48,12a18,18,0,0,1-1.44,2.88c-.83.31-.47.09-1,.48-1.43-.22-1.62-.25-2.4-1h-.48c.79-2,2.28-1.71,3.36-3.36A7.17,7.17,0,0,1,283.2,107.47Zm-3.84,5.76h1c-.45,1.15-.53.75-1,1.92h-1l-1-3.36h1.44l.48.48-1,1v1C279.57,113.55,278.74,114.41,279.36,113.23Zm1.44-14.4h1.44v1.44l-1,.48-.48.48-.48-1-.48-.48Zm-7.68.48a28.78,28.78,0,0,0,3.36-1.92c.83.31.47.09,1,.48h.48c-.71,1.19.12.56-1.44,1a6,6,0,0,0,2.4,2.88c-.43,2-1,1.62-1.92,2.88a7.18,7.18,0,0,1-1.92-.48c.38-1.88,0-1.57,1.92-1.92-.45-1.16-.53-.76-1-1.92-1.32-.26-1.37-.09-1.92-.48h-1Zm0,9.6c1,.64-1.53,2-2.4,2.4l-.48-1h-.48a7.36,7.36,0,0,1,1.92-2.88C273,108,272.58,107.53,273.12,108.91Zm-2.4,2.88a5.45,5.45,0,0,1-1,1.92c-.3.37,0,.12-.48,0h-1a6.73,6.73,0,0,1,.48-1.92Zm0-13.44h1.44l-.48,1.44h-1.44Zm-5.28,12.48c.19-1,.12-.93.48-1.44,1-2.2,1.74-.4,2.4-3.36h1.92c-1.4,2.37-4.34,7.09-3.84,9.6-1.92.65-4,.71-5.28,1.92-1.13-.42-.79-.18-1.44-1l-.48-.48h.48c1.31-2.36,2.19-.15,4.32-1.44,1.27-.77,1.55-2.63,2.88-3.36C266.36,110.94,266.44,111,265.44,110.83Zm-3.36,11.52h1c-.44,1-.42.69-1,1.44h-.48Zm-1-.48c-.52.36-.44.3-1.44.48v-1.92c.83-.31.47-.1,1-.48h1C261.49,121.06,261.51,121.3,261.12,121.87Zm1.44-1.92v-1h1v1Zm-1.44-18.24a5.58,5.58,0,0,1,2.4,1c.83.31.47.09,1,.48a8.85,8.85,0,0,0-2.4,1.44C260.9,104.12,260.83,103.2,261.12,101.71Zm-19.2-1c1.17-.64.34.22,1-1a9.35,9.35,0,0,0,3.84-1h1.44l-.48.48c-.3.48-5.07,2.76-5.76,2.88Zm2.4,17.76h-.48c-.66,1.16-.56-.34-1,1h-.48c.34-1.58.49-1.12,1-2.4.83.31.47.09,1,.48h-.48Zm-1.44-7.68c-1-.84,1.26-1.64,1.92-1.44,1.2-.71.56.11,1-1.44,1,.19.92.12,1.44.48s-.35,1.28-.48,2.88c-1.63-.25-.64-.38-1.44-1C245.06,110.19,243.51,111.15,242.88,110.83Zm0-5.28h-.48a8.36,8.36,0,0,1,1.44-2.4,7.17,7.17,0,0,1,1.92,1v1.44c-.83.31-.47.09-1,.48C243.69,105.92,243.45,105.93,242.88,105.55ZM246.72,118l.48-.48c.39.49.18.11.48,1C247.68,118.51,245.8,118.4,246.72,118Zm-1.44-15.36v-1.44c1.11.11,1.35.09,1.92.48h1v1.44Zm-3.36,6.24.48-.48c.39.49.18.11.48,1C242.88,109.39,241,109.28,241.92,108.91Zm-7.2-3.84c-.44,1-.42.7-1,1.44-.36-.52-.3-.45-.48-1.44Zm-2.4,8.64h1v1h-1Zm-10.56-14.4c-.31.83-.09.47-.48,1l-.48.48a14.09,14.09,0,0,1-1.44-2.88C220.4,98.76,219.93,99,221.76,99.31Zm-.48,24c-.39.49-.18.11-.48,1h-1.44c.59-1.18.85-.74,1.44-1.92C221.19,122.84,221,122.46,221.28,123.31Zm-1.92-4.8-.48.48c-1.2-.71-.56.11-1-1.44A5.49,5.49,0,0,1,219.36,118.51Zm.48,60c.95-3.62-.85-7.22,0-11.52h1c.43,5.39,1.13,11.57-1.92,15.84v1h-1v-.48C217.55,182,219.37,180.31,219.84,178.51Zm-1,5.76c.31.83.09.47.48,1v1.92h-1a14.09,14.09,0,0,1-1.44-2.88Zm1,10.08v1h-1l-.48-1.92ZM217,188.11h1.92v1.44l-1.44-.48-.48-.48Zm-5.76-51.36h-1v-.48h-.48a6,6,0,0,1,2.4-2.88c-.46-1.91-.56-1.6-.48-3.36,1.41.7,1.43,1.82,2.4,2.88-.19,1-.12.92-.48,1.44C213,135.89,212.15,135.64,211.2,136.75Zm12.48,73.92c-.77,2.05-7.24,4.42-9.12,3.36h-1c-.06-1.38-.34-.7,0-1.44,1.51-2.76,6.89-1.43,9.12-4.8l1.44,1C224.05,209.86,224.07,210.1,223.68,210.67ZM227,129.55c-.37.49-3.67-.86-6.72-1v-1a9.35,9.35,0,0,1,3.84,1,11.71,11.71,0,0,1,3.84.48C227.51,129.45,227.88,129.24,227,129.55Zm0-13.44c-.49.38-.12.17-1,.48v-.48c-.39-.5-.18-.12-.48-1a15,15,0,0,0,1.44-2.4l1,.48A5.82,5.82,0,0,1,227,116.11Zm0-13.92a8.36,8.36,0,0,1,1.44-2.4h1a5.09,5.09,0,0,1-1,2.4Zm2.88,9.12h-1v-1h1Zm1.44,16.8h-.48v-1h.48Zm1-7.68c-1.2-.71-.56.11-1-1.44a5.49,5.49,0,0,1,1.44,1Zm2.4,7.68h1v1a4.85,4.85,0,0,1-2.4-1.44C234.27,127.82,234.21,127.75,234.72,128.11Zm1.92,11,.48-.48,1,1c-.32,1.21-.14.26,0,1.44a6.12,6.12,0,0,1-1.92.48,6.73,6.73,0,0,0-.48-1.92Zm1.92,6.24c-1.68-.42-1.3-.67-2.4-1.44v-1.44c1,.19.93.12,1.44.48h1Zm-3.36-27.84c-.83-.31-.47-.1-1-.48s2.7-3.52,3.36-4.32l1,.48C238,115.67,236.48,115.94,235.2,117.55Zm4.32-10.08c.83.31.47.09,1,.48H241l-.48.48v.48C239.28,108.2,239.92,109,239.52,107.47Zm2.4,25c.6.36.46,0,1.92,0,.19-1,.12-.93.48-1.44v-1l.48.48c1.36.55.9.06,1.44,1.44.49.82,0,0,0,1-1,.38-1-.07-1.92.48-1.2.69-.72,1.23-1.92,1.92-.49.38-.12.17-1,.48-.49-.39-.12-.18-1-.48A4,4,0,0,1,241.92,132.43Zm.48,4.32c1,.19.93.12,1.44.48l.48.48h-.48a3.4,3.4,0,0,1-1,1.92c-.52.36-.44.3-1.44.48A27.68,27.68,0,0,1,242.4,136.75Zm1,9.6h-1c.47-2.44,2-3.31,3.36-4.8l1.92.48C247.12,144.82,245,144.77,243.36,146.35Zm4.8-21.12h-1.44v-1l1.44.48Zm-.48-3.36-1-.48c-1-.87.18-1,.48-1.92C248.21,120.23,249.16,120.87,247.68,121.87Zm1.92-24c1.73-.4,2.5-.69,3.36-1.92h1.44v1h.48v.48a8.08,8.08,0,0,0-2.88,1h-2.4ZM251,123.79c-1.2-.71-.56.11-1-1.44h1Zm-.48-21.12H251c1.16-2.19,5.1-2,7.68-3.84h1.92v.48c-2.1.88-3.38,2.21-5.28,2.88-.55.65-.24-.15-1.44-.48-.84,1.12-.13,1.19-1.44,1.92-.49.38-.12.17-1,.48l-.48-1Zm6.72,5.76c-2-.09-3.1-.31-3.84,1h-1c.4-2,.84-1.74,1.92-2.88a4.15,4.15,0,0,1,2.4.48h.48l-.48,1Zm0,3.84h1v1h-1Zm-5.76,8.16h1v1.44C251.28,121.16,251.92,122,251.52,120.43Zm1.44,5.28h-1l.48-1.44h1.44C253.48,125.3,253.5,125,253,125.71Zm1.44-13c-1.24-.39-.57-.4-1.44-1.44.83-.31.47-.1,1-.48h1.44l.48.48v1.44C254.46,112.81,255.14,113.09,254.4,112.75Zm1,1.44c.83.31.47.09,1,.48h.48l-.48,1-1,.48C255.06,114.93,255.18,115.34,255.36,114.19Zm6.72,29.28v1c-1.93-.26-2.29-.31-2.88-1.92l-1,1c-2.74-.45-2-.83-1.44-2.4a12.25,12.25,0,0,1,4.8,1.44l1,1Zm0-2.88h-1.44c-.31-.83-.09-.47-.48-1,.56-.56,1.36-.89,1.92-1.44h.48A7.63,7.63,0,0,1,262.08,140.59Zm1.92-8.16c-.59,1.18-.85.73-1.44,1.92h-.48c.22-2.16.62-2,1.44-3.36C264.1,131.68,264.57,131.84,264,132.43Zm1.44-10.56c-.94.21-.62-.21-1-.48l-.48-.48h.48c.44-1,.42-.7,1-1.44l1,.48c-.42,1.54.26.74-1,1.44Zm.48,10.08h1v1l-1,1C265.62,132.69,265.74,133.1,265.92,132Zm1.44,13.92c-1.2-.71-.56.11-1-1.44.83.31.47.09,1,.48C266.87,145.73,267.35,144.91,267.36,145.87Zm1-14.88a7.18,7.18,0,0,1-1.92-.48c.36-2,.94-2.17,1.92-3.36l1,.48A28.21,28.21,0,0,1,268.32,131Zm1.92-4.32c-.42-.63.11-1.43-1-2.4v-.48c1.83-.1.87-.22,2.4.48a27.71,27.71,0,0,0,1.92-2.88c1-.19.92-.12,1.44-.48.58.69,1,.85.48,1.44a9.51,9.51,0,0,1-4.32,4.32v.48C270.26,127.36,270.58,126.94,270.24,126.67ZM275,143c-.37-.09-.31.14-1-1-1.13.42-.79.18-1.44,1-2-.45-.83-.05-1.44-1.44a22.14,22.14,0,0,0,3.36-1l1.44.48C275.71,142.56,275.92,142.23,275,143Zm1.44-5.76c-.71-.74-1.69-1.19-2.4-1.92-.39-.5-.18-.12-.48-1,1.54-1.19,1.22-1.19,3.36-1-.49-1.39-1.49-1.34-1.92-2.4-.57-1.41.79,0,.48-1.44H277a7,7,0,0,1,.48,2.4,6.6,6.6,0,0,1,2.4-.48l.48.48c-1,2.05-2.24,1.54-2.4,4.8Zm7.2-2.88a40.15,40.15,0,0,1-3.36,2.88l-.48.48-.48-.48c.56-1.75,1.46-2.91,1.92-4.8h1.44l1,1Zm-.48-4.8v1h-2.4a3.15,3.15,0,0,1,1.44-2.4c.52-.37.44-.3,1.44-.48C283.57,128.74,283.59,129,283.2,129.55Zm-1.44-8.16-.48-.48c.3-2.57.4-.75,1-2.4a12.12,12.12,0,0,1,2.4,1C284,121.82,283.22,121,281.76,121.39Zm5.76,18.24h-1.44v-1h1.44Zm-2.4-4.8a6.73,6.73,0,0,0-.48-1.92l1-1c2,.17,1.79-.12,2.4,1.44l.48.48-1,.48A11.71,11.71,0,0,1,285.12,134.83ZM288,142c.11-1.12.09-1.36.48-1.92v-.48c1.44.92.65.5.48,1.92l.48.48Zm2.4-13.44h-1v-1.92c1.91.19,1.08,1.3,1.92,0h1.44c-.28.93-.79,1.12-1.92,1.92C290.58,129,290.86,128.71,290.4,128.59Zm2.88,7.2a4.15,4.15,0,0,1-2.4-.48c-.45-.8.36-1.36,1-2.4h1.44v1c.39.49.18.11.48,1C293.37,135.32,293.58,135,293.28,135.79Zm2.88-1.92h-1.44a9.56,9.56,0,0,0-1-1.92c.31-.83.09-.47.48-1,.52.62,1,.46,1.92.48C295.93,132.59,296.09,132.18,296.16,133.87Zm2.4-28.32V106c-.36-.52-.3-.45-.48-1.44-.77.65-.56.29-1,1.44h-1.44v-1a9.84,9.84,0,0,0,1.92-1l1.44.48C298.73,105.42,299,105.06,298.56,105.55Zm2.88,22.56-1.44.48-.48-.48.48-2.4h.48v1c.39.91.48-1,.48-1h.48Zm1-8.64s-1.88.1-1,.48l.48.48h-1c.21-1.78.27-1.42,1-2.4a8.41,8.41,0,0,1,1,1.92Zm4.32-14.4h1.44l-.48.48v1h-1.44ZM311,137.71c0-2.28-.68-5.74-1.44-6.24V131c1.58.34,1.12.49,2.4,1-.4,1.63.29,3.4.48,5.76ZM313,124.27l-1-1,.48-2.4a4,4,0,0,1,2.88,1.44c.36.51.3.44.48,1.44Zm4.32-6.24c-2.92-.14-3.82-.84-4.8-2.88-1.16.44-.76.52-1.92,1-.16,2-1.08,6.7-.48,7.68-.54,1.64.08,1-1.44,1l.48,3.36c-2.38-.31-.73-.8-2.4,0-.68-2.56-.64-9.18,1-11,.71-1.46,1.9-1.76,3.84-1.92.23-1.33.58-1.39,0-2.4v-1.44h1c.53,1.73,2.75,4.23,4.8,5.76Zm3.84,17.76.48-1S322,135.12,321.12,135.79Zm.48,3.84c.83.31.47.09,1,.48C321.73,139.8,322.09,140,321.6,139.63Zm3.84,1.92V142c-.36-.52-.3-.45-.48-1.44h1C325.61,141.42,325.83,141.06,325.44,141.55Zm4.32-2.4h-1v-1h1Zm2.4,6.72c.39.49.18.11.48,1C331.66,146.39,332.32,146.93,332.16,145.87Zm1.92-5.76v.48c-1.2-.71-.56.11-1-1.44h1.44C334.25,140,334.47,139.62,334.08,140.11Zm2.4-6.72H335l.48-1.44H337Zm3.84-10.56c-.36-.52-.3-.45-.48-1.44h.48Zm9.6-5.76c.58-1.2,1.09-1.1,1.92-1.92,1.47.7,3.1,1.31,4.8,1.92v1c-2.07.06-5.45.36-6.72-.48l-.48-.48Zm4.32,3.36a7.63,7.63,0,0,0,.48,2.4c-1.76.48-4.16-.44-5.76,1-1-.19-.93-.12-1.44-.48H347C348.26,120.71,351.3,120.11,354.24,120.43Zm-1,7.2c-.45.85-.16.53-1,0ZM348,131v.48c-1.06-.14-.92.59-1-.48Zm2.4,5.76c-2.08.31-1.28-.88-2.4,1h-1v-1.92l3.36-.48Zm1-2.88c-.39-.5-.18-.12-.48-1A14.45,14.45,0,0,0,352.8,130l1.44.48c-.69,1.81-1.37,1.53-1.44,4.32C351.67,134.41,352,134.65,351.36,133.87Zm3.36.48v1h-1v-1Zm-.48,6.72-1.44-.48c.32-2.25,1.06-2.24,1.92-3.84l1,.48c-.64,1.64-1.6,2.1-1.44,3.36Zm1.92,1.92h-1v-1l1,.48Zm1.92-1v.48c-1.13-.42-.79-.18-1.44-1,0-.2.68-2,1-2.88,1,1.23.88.88,0,1.92,0,0,.11,1.88.48,1l.48-.48C358.25,141.9,358.47,141.54,358.08,142Zm0-10.56-2.4.48c.42-3.17.7-3.12-1-5.76l.48-.48c1,.19.92.12,1.44.48,1.29.83.63,2,1.92,2.88A7.63,7.63,0,0,1,358.08,131.47Zm1.44-8.16H361C360.13,123.73,360.35,123.73,359.52,123.31ZM372,125.23c-.45.85-.16.53-1,0ZM369.6,119l1,.48V120h-1Zm-5.28,4.8c.83-.31.47-.1,1-.48l1,.48v1a5.86,5.86,0,0,0-1.92-.48Zm1,1c-.83.42-.61.42-1.44,0Zm-1.44,13.92c.5,1.76,1.26,3,1.92,4.8h-.48c-.49.38-.12.17-1,.48-.49-.39-.12-.18-1-.48.11-1.12.09-1.36.48-1.92-.71-1.2.12-.57-1.44-1v-1.92a27.68,27.68,0,0,0,3.36-1c.49.38.12.17,1,.48l.48,2.4h1.44c-.31.83-.09.47-.48,1-.31.83-.09.47-.48,1a10.09,10.09,0,0,0-3.36-3.36v-.48Zm5.28,3.36v1h-.48v-1Zm1,10.56c-1.2-.71-.56.11-1-1.44h1Zm-.48-2.4h-1c-.88-1.81-.47-2.4-1.92-3.84v-.48l1,.48.48-.48v1.44c1,.19.92.12,1.44.48h1A5.09,5.09,0,0,1,369.6,150.19Zm.48-12.48h1.44l.48.48-.48.48c-.49.38-.12.17-1,.48Zm2.4,14.88v.48c-.94.21-.62-.21-1-.48-.46-.78,0-.05,0-1.44l1.44.48C372.65,152.46,372.87,152.1,372.48,152.59Zm1-3.84-1.44.48-.48-.48a6.73,6.73,0,0,1,.48-1.92h1.92Zm1-9.6v.48h-1l-1-5.28,1.44.48a11.28,11.28,0,0,0,1,3.36C374.57,139,374.79,138.66,374.4,139.15Zm.48-14.4v-1h1.44v1Zm2.4,71.52h-1.44c-.12-2.16-.41-4.47,1-5.28.49-.39.12-.18,1-.48.49.38.12.17,1,.48A8.52,8.52,0,0,0,377.28,196.27Zm15.36-83v1H391.2v-4.8h1.44C392.76,111.22,393.2,112.24,392.64,113.23Zm0,7.68H391.2v-4.8c.83-.31.47-.1,1-.48h.48A44.27,44.27,0,0,1,392.64,120.91Zm-.48-20.16a4.17,4.17,0,0,0,.48,2.4c-.31.83-.09.47-.48,1s-.12.17-1,.48a11.23,11.23,0,0,1-.48-3.84Zm-1.44,87.36a8.5,8.5,0,0,1,2.4,1.44,7.47,7.47,0,0,1-1,1.92,5.6,5.6,0,0,1-3.36-1C389.34,189,389.81,189.08,390.72,188.11Zm-3.84-65.28h1.44C387.49,123.25,387.71,123.25,386.88,122.83Zm8.16,73c-2.07.06-5.45.36-6.72-.48h-1c.44-1,.42-.7,1-1.44l7.2.48Zm10.08-3.36v.48c-1.74-.69-1.92-1.18-1.92-2.4h1.92l.48.48C405.41,192,405.48,191.91,405.12,192.43ZM493,100.75H491V99.31H493Zm14.23-58.29c.17-.3.33,1.33.4,2.6a12.34,12.34,0,0,1,0,1.34,13.25,13.25,0,0,1-1.26,4.5c-1.29,2.26-3.62,3.4-6,1.78a6.75,6.75,0,0,0,3.68-5.8,4.43,4.43,0,0,1,.24-2.15C504.89,43.64,506.56,43.53,507.19,42.46Zm-11.67,8.71c-.2-.89,4,.71,4.27.94.4-.48.5,1.47.85,1.36,1.91-.63,9.51,11.16,0,8.78l-3.42-.85a3.2,3.2,0,0,0,1.7-3C498.89,55,496.16,54,495.52,51.17Zm5.12-2.74V46.51h1.92v1.92Zm1.44-13H504a5.16,5.16,0,0,0,2.4,1.92c-.63,2.5-3.89,2.76-5.28,4.8l-2.4-.48-.48-1.44C499.43,39.09,501.5,37.1,502.08,35.47ZM497.28,47h1.44l.48.48c-.31.83-.09.47-.48,1s-.44.3-1.44.48Zm-1.44-14.4,1,.48a10.35,10.35,0,0,1-2.88,4.32v1h-1C493.26,35.34,494.59,34.48,495.84,32.59Zm-6.72,25h1.44c.31,1.63.55,2.94-.48,4.32-.49.38-.12.17-1,.48v-.48C488.78,61.2,489.05,59.39,489.12,57.55Zm-2.88,16.32c1.64.54,1-.08,1,1.44a3.12,3.12,0,0,0,2.4-1c.46,2.07,1.17,3.7,1.44,5.76.33-.37.63-1.07,1-1.44-.11-2.15.28-1.79-1-1.92V75.31l.48.48c2.86-.15,3.64-.32,3.84,2.4.86-.6.63-.42,1-.48h1c-.08-1.8.25-1.7-1-2.4.42-1.68.43.21,1-1.44h1l.48.48v2.88c1.87.34,1.74.77,3.84,1-.48-2.38-.94-.07-1.44-2.88,1,.19.92.12,1.44.48A14.42,14.42,0,0,0,504,72a27.19,27.19,0,0,0,2.88,1.92c-.52,1.45-.44,1.42-1.92,1.92.65,1.32,1.28,1.07,1.92,2.4h.48l-.48,1.44c-2.2-.1-3.28-.53-3.84-1-1.27.84-.67,0-.48,1.44h-1.44V78.67a9.68,9.68,0,0,1-3.36.48v1.44h-1c.31-.83.09-.47.48-1V78.19c-1.14.7-.44.52-1.44.48-.73.74-.36.88-1.44,1.44v1c-.36-.52-.3-.45-.48-1.44h-.48c-.46,1.11-.11.78-.48,1.92l-3.84.48a19.92,19.92,0,0,0-2.88-7.2ZM478.08,83H480v1.44h-1.92Zm-38.4,30.24-.48.48-.48-1-.48-.48a9.54,9.54,0,0,0,1.92-1.44l1,.48A2.64,2.64,0,0,1,439.68,113.23Zm2.4,56.16h-1a10.8,10.8,0,0,1,0-4.8c1.17.63.34-.23,1,1,.12.18.19,2.43.48,3.36Zm2.88-7.68v.48c-1.2-.71-.56.11-1-1.44.83.31.47.09,1,.48h.48Zm4.32,14.88c-.83-.31-.47-.1-1-.48s-.95-4.07-1-6.24h1.44C449,173.61,449.51,173.38,449.28,176.59Zm12-45.6c-.65,1.49-2.73,1.88-3.36,3.84-1.65,5.12-.59,12.87-3.36,17.28v1h-1.92c.19-1,.12-.93.48-1.44v-1.92h-.48c-.37,1.5-.29,4.7-1.44,5.76.52.84,1.64,1.33,1,1.92a8.64,8.64,0,0,1-1.44,2.4h-1.44a23.87,23.87,0,0,1,0,3.36l-1,2.88c-1-.19-.93-.12-1.44-.48-.6-1-.32-6.77,1-8.64v-2.4h-.48a9.11,9.11,0,0,1-1.44,2.4c-.52.36-.44.3-1.44.48.16-3.92,1.51-5.61,1.92-9.12a6.93,6.93,0,0,1-2.4,0c-.91,3.38.28,7.53-1.92,11v1h-1l-.48-.48c.2-7.56,3.11-12.91,4.8-18.72,1.12-3.85,0-9.24,1.92-12.48-.57-2.57-1.83-1.82-2.4-4.32,1.54.23,1.91.51,2.4.48,1.23-.61,1-.5,1.44-1.92.39-.5.18-.12.48-1-2-.94-3.6-1.52-4.32-3.84h-.48v-1a3.37,3.37,0,0,1,1.92,1c4-.59,1.81-2.63,3.84-4.8l1.92-.48c1.34-1,1.87-2.81,3.36-3.84v-.48c-3,1.07-4.7,4.33-7.2,5.76-1.26.72-2,.14-2.88,1a5,5,0,0,1-2.4-1v-1c3.37-2.07,5-5.85,9.12-7.2,4.64-1.53,8.56,1.39,11.52,1,5.33-.78,10-3.67,14.4-5.28,2.11-.77,4.15-.35,5.76-1.44,2.61.19,2,.28,1.92,1.92.83-.31.47-.1,1-.48,1.19-.72.76-.2,1-1.92.32.41.65,1.5,1,1.92-.65,3.47-6.44,7.19-9.6,8.16-.49.38-.12.17-1,.48l-.48-.48c.45-2.28,6.19-5.66,8.16-6.72v-1c-2.36,1.07-5.8,1.47-8.16,2.88-5.18,3.07-12,10.08-14.4,15.84C461.84,124.16,462.78,127.53,461.28,131Zm11,2.4v.48h-1V132h1.44C472.61,132.93,472.68,132.87,472.32,133.39ZM477.6,180h1v1h-1Zm.48,10.56V191h-1c.44-1,.42-.7,1-1.44h.48C478.77,190.49,478.35,190.16,478.08,190.51Zm3.84-28.8v.48c-1.2-.71-.56.11-1-1.44h1.44C482.09,161.58,482.31,161.22,481.92,161.71Zm14.88-3.36v.48c-1.2-.71-.56.11-1-1.44.83.31.47.09,1,.48h.48Zm11.52-23h1.44l.48.48-1.44,1.92c-.83-.31-.47-.1-1-.48C507.47,136.55,507.9,136.39,508.32,135.31Zm-3.84,3.84v1.44c-1.2-.71-.56.11-1-1.44Zm.48,19.68,2.4.48c-.44,1.56-1,1.88-1.44,3.36H504l-.48-1.44A5.23,5.23,0,0,0,505,158.83Zm-2.4,6.72a7.16,7.16,0,0,1,1-1.92h1.92v1c.38.3.12,0,0,.48-.56,1.35-.06.9-1.44,1.44v1l1.44-.48.48.48a3.4,3.4,0,0,1-2.4,2.4c-.49.38-.12.17-1,.48l-.48-.48A27.71,27.71,0,0,1,502.56,165.55Zm-1,11c.92-.44.35-.19,1.44,0v-1l1.44.48V180c-.93,4.26.76,8.83,0,12.48-.44,2.1.47,4.81-.48,6.24l-.48.48C502.42,196.76,499.59,179.63,501.6,176.59Zm2.88,23.52c-.31.83-.09.47-.48,1v.48c-.36-.52-.3-.45-.48-1.44Zm.48,3.36V204c-1.08-.59-1-.83-1.44-1.92l1.92.48C505.13,203.34,505.35,203,505,203.47Zm4.8-26.4a3.37,3.37,0,0,0-1.92,1,7.18,7.18,0,0,1-1.92-.48,6.73,6.73,0,0,1,.48-1.92c1.33.23,1.39.58,2.4,0h1Zm6.24-4.8h-1.44v-1.44H516Zm-4.32-25.44v1.92c-1.26,2.8-3.28,6.22-4.8,9.12l-1,.48-.48-.48c0-4.22,4.63-14.8,6.24-16.32.92-.87,2.5-.5,3.36-1.44h1C515.3,143.85,513.21,144.43,511.68,146.83Zm13-14.88c-1.23,2.27-5.48,1.8-6.72,3.84-.62,1,1.13,1.93-.48,2.88-2.48,1.45-5,.73-6.24,3.36h-1c.88-6.67,7-10.52,13.44-11a4.72,4.72,0,0,1-1-2.4c1.71.22,1.22-.26,1.92,1A5.26,5.26,0,0,1,524.64,132Zm16.8-9.12v-1.44h1.44c-1-1.42-3.3-2.5-2.4-4.32v-.48c3.27,1.17,2.76,4.31,4.8,5.28C544.52,123.12,543.43,122.92,541.44,122.83ZM600,110.35a29.74,29.74,0,0,1,6.24-.48v1.44c-1.68.25-4.28,1-5.76,0H600Zm-39.84,29.28h-.48l.48-1.44h1C560.68,139.22,560.7,138.89,560.16,139.63Zm7.2,2.88c1.17.63.34-.23,1,1h.48c-.54,1.41-1.21,1.72-2.4,2.4.32,1.38.89,3.51,0,4.8v.48h-1c-.85-3.36-2.42-5.32-2.4-9.6C565.16,141.51,566.33,141.55,567.36,142.51Zm-1.92,64.32v-1.92h1a6.12,6.12,0,0,1,.48,1.92Zm45.6-49c-.68.69-3.13-1.16-4.32-1.44s-1.74.4-2.4.48l-10.56-1c-1.82-.52-4-2-4.8-1.92-1.49,0-3-.07-3.84.48-.38.54-.43,2.27-1.44,3.36-.49.38-.12.17-1,.48l-.48-.48c.37-2.43,1.13-2.51,2.4-3.84l.48-.48-3.84-.48c-.36,4.54-2.85,8-3.84,12H576l3.36-13c-4.49-.67-7.88-3.13-11.52-4.8l-.48-1.44.48-.48c4.62.28,8.12,3.38,12,4.8l9.12,1c3.23,1,7.48,2.38,11,3.36,2.61.71,7.5,1.93,10.56,1,1.07-.34,1.49-1.55,2.4-1h1.92A6.08,6.08,0,0,1,611,157.87ZM397.53,48.38l-1.15,1.16A10.51,10.51,0,0,0,397.53,48.38Zm8.55-12V36l-4.32-1.44a20.65,20.65,0,0,1-4.23,13.87c2.9-2.93,5.93-6.18,6.15-11.47A6.6,6.6,0,0,1,406.08,36.43Zm-148.32-1h-1.44c.52.36.44.3,1.44.48v1.92h-36v.48h25c3.53,0,8.3-.43,11,.48-.51,1.81-1.05,2.69,0,4.32l-.48,1.44H245.76c2.16,1.4,8.84.55,12,.48-.17,2.27-1.15,1.66,0,2.4-.42,1.54.26.74-1,1.44l1,1c-.31.83-.09.47-.48,1-1.25.83-4.67.55-6.72.48,1.25.83,4.67.55,6.72.48l.48.48c-.31.83-.09.47-.48,1-1.17.78-4.28.55-6.24.48,1.25.83,4.67.55,6.72.48-.42,1.54.26.74-1,1.44.76,1.42,1.36,1.61,0,2.88l1,1c-1.81,1.21-6.33,1-9.12,1,1.66,1.09,6.57.55,9.12.48-.43,3.19-.39.91,0,3.84h-2.4v1a6.6,6.6,0,0,1,2.4-.48v1.92H242.4c2.74,1.76,11.48.56,15.36.48v1.44H249.6a4.07,4.07,0,0,0,2.4.48c.3,1.18.18.76,0,1.92h5.76v3.84c-1.57.21-5.95.22-7.68-1-2.55-.13-2.69,0-2.88,1-.52.36-.44.3-1.44.48l.48,1h11.52a14,14,0,0,1,0,2.88c-.81,1.21-5,1.47-7.2,1-5.78-1.34-13.88.42-19.2-.48-2.88-.49-5.53,1.37-7.68,0h-3.84c.78,1.09.69,1.15,2.4,1.44-.31.83-.09.47-.48,1v1h2.88c-.52-.37-.44-.3-1.44-.48-.31-.83-.09-.47-.48-1,3.38-2.39,24.62-.81,26.4-.48h8.64a8.7,8.7,0,0,0,.48,2.88,15.07,15.07,0,0,1-4.8.48c.8.54,2.36.52,3.84.48a18.71,18.71,0,0,0,1,2.88c.83.53,2.09,0,3.36.48,3.15,1.1,4.16,3.17,8.16,3.84,2.55.42,8.42-1.14,10.56,0h1c-.42-1.39-.7-1.23-1-2.88-2.4.08-2.11-.16-1.92,1.44a6.43,6.43,0,0,1-3.36-.48c-2.14-.11-1.79.28-1.92-1-2.31-.41-6.9.59-8.64-.48L263,88.75c.71-8.37,1.08-21.45,0-27.36-.37-2,.17-9.39,1-10.08-1.13-1.28-1.65-5.13,0-6.72-.57-.64-1.3-.82-1-2.4,0,0,1.67.2,1-.48h-1V22c-1.27-6.58.09-14.21-.48-21.6a41.84,41.84,0,0,1-4.8,0C257.78,14.31,257.75,22.66,257.76,35.47ZM257.28,71h-1V70h1Zm3.84-69.12h.48v1h-.48Zm0,2.4h.48v1h-.48Zm0,1.92h.48v1h-.48Zm0,2.4h.48v1h-.48Zm0,2.4h.48v1h-.48Zm0,1.92h.48v1h-.48Zm.48,2.4v1.44c-.36-.52-.3-.45-.48-1.44Zm-.48,2.4h.48v1h-.48Zm0,2.4h.48v1h-.48Zm0,4.32h.48v1h-.48Zm0,2.4h.48v1h-.48Zm.48,4.32v1.44c-.36-.52-.3-.45-.48-1.44Zm-.48,2.4h.48v1h-.48Zm0,2.4h.48v1h-.48Zm34.56-35C286.78-.71,276,.35,265,.43v1h30.72Zm-.48,18.24c.86.59,3,1,3.84,1.44a7.47,7.47,0,0,1-1,1.92l-21.12-1c3.46,2.18,9.93-.19,13.44,1.92,3.41-.06,7.05-.14,9.12,1-.42,2.94-.39.66,0,3.84h-1.44c.52.36.44.3,1.44.48-.45,3.58-.43,2.66,0,6.24h-11v.48c3.51,0,8.33-.44,11,.48-.08.37-1,4.32-1,4.32a2.92,2.92,0,0,1,.48,3.36v.48H301c-2-6.1.74-10.22,0-15.84A111.87,111.87,0,0,1,300.48.43c-1.54.42-.74-.26-1.44,1-1.13,2.18-.07,12.51,0,17.76Zm11-18.24L304.32.43c-.52.36-.44.3-1.44.48v.48h3.36Zm2.4,11c.63-1.17-.22-.34,1-1-.85-2.42-1.09-7.8.48-10.08a6.6,6.6,0,0,0-2.4-.48s-.22,9.84.48,10.56C308.47,11.82,308.25,11.46,308.64,12ZM328.8,1.39c-1.62-1-7.2-.65-9.12-1-1.17.78-4.28.55-6.24.48C316.18,2.67,324.92,1.47,328.8,1.39Zm59,0c-4.85-3.25-16.31.34-22.08-.48-8.54-1.23-23.9.27-36-.48l-.48,1.44C347.91,1.37,368.43,1.36,387.84,1.39Zm1.92,14.88h1L391.2.43l-2.4.48C390.18,5,390.08,11.42,389.76,16.27Zm8.64-12h1.44c-.33-2-.33-1.84.48-3.36C398.85.5,396.8,1,395,.43c-.56.38-.8.38-1.92.48,1,.63,3.79.35,4.8,1C399.36,2.81,398.6,2.58,398.4,4.27ZM419,1.39c-.88-.58-3.8-.66-4.8-1C412,1.88,405,1,401.76.91,403.9,2.28,415.44,1.45,419,1.39Zm2.88,0,.48-.48a5.86,5.86,0,0,0-1.92-.48c-.49.38-.12.17-1,.48l.48,1C421.11,1.76,421.35,1.77,421.92,1.39Zm13,0L468,.91c-2.35-1.48-9.11-.48-12.48-.48H423.84C423.32,2,432.11,1.39,434.88,1.39Zm43.2,13a3.28,3.28,0,0,0,1.92,1l-.48,1.44h-1c-.92.38,1,.48,1,.48-.42,1.54.26.74-1,1.44l1,1c-.42,1.54.26.74-1,1.44.53,1.23,1.15,1.49,1.92,2.4h1.44c-1.05-2.79-1.09-13.53-.48-14.4.13-3.11-1.62-6.62,1-8.16V.43h-4.32l1.44,1.44c-.51,2.45-.34.76,0,3.36h-1.44c.65.76.29.55,1.44,1-.42,1.54.26.74-1,1.44,1,2.15-.21,2.22,1.44,3.84-.52.36-.44.3-1.44.48.65.76.29.55,1.44,1C479.39,14.37,479.84,14,478.08,14.35ZM488.64.43c.56.38.8.38,1.92.48C490,.52,489.76.52,488.64.43Zm22.08,1V.91h1V.43h-2.4c.49.38.12.17,1,.48ZM539,13.87c-.19-4-.51-8.76-.48-13.44H530.4c-.9,4.64-.12,11.79.48,16.8C533.85,16.34,535.55,14.32,539,13.87Zm7.2-7.2c1.45.41.2.85,2.4,1.44a7,7,0,0,1-1,3.84c-.92.44-.35.19-1.44,0-.78,2.37.12,6.13-.48,9.12-1.68,8.44,1.6,20.73,0,29.28-.87,4.66,2,11-.48,14.88v.48l3.84-.48c-.38-1.26-.6-1.14-1-2.4l.48-.48h1.44l.48,2.4h1.92c-.56-21-.51-42.33-.48-64.32h-6.24c.06,1.87.26,4.65-.48,5.76V8.11C546.05,7.46,545.84,7.81,546.24,6.67Zm0,17.28V22.51l.48-.48h1.44a6.12,6.12,0,0,0-.48,1.92Zm1,30.24,1,.48c-.31.83-.09.47-.48,1l-.48.48C546.9,54.93,547,55.34,547.2,54.19Zm.48,6.72.48-.48v-1c1.2.7.56-.12,1,1.44Zm0-39.84v.48h-1c-.41-1.92-.68-4.84,0-6.72l1.44.48a14.22,14.22,0,0,0,1,3.84C548.71,20.79,548.88,20.37,547.68,21.07Zm-.48-16.8h1a6.91,6.91,0,0,1-.48,1.92h-1.44ZM567.84.43v1h.48C568,.56,568.23.92,567.84.43Zm26.4,8.16V.43H590.4V8.11A33.27,33.27,0,0,1,582.72,11c-.84-1.07-1.17-1-1.44-2.88-.75.54-.39.53-1.44,1-.77-2.22-1-6-1-8.64h-2.4c0,3.71.18,9.41,2.4,11l-.48,1.44c-2.26.43-5.18.71-6.72,1.92h-1C573.5,16.8,591.21,10.48,594.24,8.59Zm-13-8.16c-.17,2.18-1.19,5.42,0,7.2v.48h.48C581.82,5.84,582.22,1.86,581.28.43ZM296.16.91c.52.36.44.3,1.44.48C297.08,1,297.16,1.09,296.16.91Zm-40.32,1c-1.58-1-6.19-.56-8.64-.48C248.78,2.43,253.39,1.94,255.84,1.87Zm-72.48.48h23.52c-1.84-1.16-6.86-.48-9.6-.48H173.76C175.6,3,180.62,2.35,183.36,2.35Zm25-.48c.56.38.8.38,1.92.48C209.68,2,209.44,2,208.32,1.87Zm10.56.48c-1.5-1-5.81-.56-8.16-.48C212.22,2.86,216.53,2.42,218.88,2.35Zm1-.48c.52.36.44.3,1.44.48C220.76,2,220.84,2.05,219.84,1.87Zm6.24,0a4.07,4.07,0,0,0,2.4.48A3.92,3.92,0,0,0,226.08,1.87Zm2.88,0c.56.38.8.38,1.92.48C230.32,2,230.08,2,229,1.87Zm259.68,1c.52.36.44.3,1.44.48C489.56,2.94,489.64,3,488.64,2.83Zm21.6,1c.94.21.62-.21,1-.48h.48V2.83h-2.4c.49.38.12.17,1,.48Zm-244.8-.48c1.82,1.19,7.33.55,10.08.48C273.7,2.59,268.2,3.23,265.44,3.31Zm14.4.48a3.92,3.92,0,0,0-2.4-.48A4.07,4.07,0,0,0,279.84,3.79Zm.48-.48a5.09,5.09,0,0,0,2.88.48A5,5,0,0,0,280.32,3.31Zm4.32,0c.56.38.8.38,1.92.48C286,3.4,285.76,3.4,284.64,3.31Zm2.88,0c1.17.78,4.28.55,6.24.48C292.59,3,289.48,3.23,287.52,3.31Zm7.68,0c.56.38.8.38,1.92.48C296.56,3.4,296.32,3.4,295.2,3.31Zm8.16,0a4.07,4.07,0,0,0,2.4.48A3.92,3.92,0,0,0,303.36,3.31Zm13.44,0c.52.36.44.3,1.44.48C317.72,3.42,317.8,3.49,316.8,3.31Zm8.16,0c.56.38.8.38,1.92.48C326.32,3.4,326.08,3.4,325,3.31Zm6.72,1v-1h-2.4C330.08,4.22,330,4.13,331.68,4.27Zm4.32-1c2.1,1.34,13.27.54,16.8.48C350.7,2.44,339.53,3.24,336,3.31Zm19.68.48a3.92,3.92,0,0,0-2.4-.48A4.07,4.07,0,0,0,355.68,3.79Zm28.8,0c-3-1.88-21.4-.55-26.4-.48C361,5.18,379.48,3.85,384.48,3.79Zm10.08-.48c.56.38.8.38,1.92.48C395.92,3.4,395.68,3.4,394.56,3.31Zm7.68,0c1.1.73,3.9.55,5.76.48C406.9,3.05,404.1,3.24,402.24,3.31Zm6.24,0c1.66,1.09,6.57.55,9.12.48C415.94,2.7,411,3.23,408.48,3.31Zm13.44,1v-1h-2.4l1,1Zm16.8-.48c-2.66-1.72-11.1-.56-14.88-.48C426.5,5,434.94,3.87,438.72,3.79Zm130.56-.48v1h.48C569.45,3.44,569.67,3.8,569.28,3.31ZM239,3.79c.52.36.44.3,1.44.48C240,3.9,240,4,239,3.79Zm4.32,0c.52.36.44.3,1.44.48C244.28,3.9,244.36,4,243.36,3.79Zm2.4,0a4.07,4.07,0,0,0,2.4.48A3.92,3.92,0,0,0,245.76,3.79Zm5.28,0h-1c.49.38.12.17,1,.48Zm322.08,0v1h.48C573.29,3.92,573.51,4.28,573.12,3.79Zm-387.84.48a4.07,4.07,0,0,0,2.4.48A3.92,3.92,0,0,0,185.28,4.27Zm383.52,1c-.63-1.17.22-.34-1-1V5.71h.48Zm-169,1v-1h-1C399,6.53,398.53,5.83,399.84,6.19Zm61-.48c-.52-.37-.44-.3-1.44-.48C459.88,5.59,459.8,5.53,460.8,5.71Zm15.36,0c-1.33-.89-5.05-.56-7.2-.48C470.29,6.11,474,5.78,476.16,5.71Zm8.16-.48a4.07,4.07,0,0,0,2.4.48A3.92,3.92,0,0,0,484.32,5.23Zm4.32,0c.56.38.8.38,1.92.48C490,5.32,489.76,5.32,488.64,5.23Zm12,.48c-1.58-1-6.19-.56-8.64-.48C493.58,6.27,498.19,5.78,500.64,5.71Zm8.16-.48a5.09,5.09,0,0,0,2.88.48A5,5,0,0,0,508.8,5.23ZM276,5.71h-1c.49.38.12.17,1,.48Zm6.24.48a5,5,0,0,0-2.88-.48A5.09,5.09,0,0,0,282.24,6.19Zm3.84,0c-.56-.39-.8-.39-1.92-.48C284.72,6.09,285,6.09,286.08,6.19Zm3.36,0a3.92,3.92,0,0,0-2.4-.48A4.07,4.07,0,0,0,289.44,6.19Zm3.84,0a5,5,0,0,0-2.88-.48A5.09,5.09,0,0,0,293.28,6.19Zm3.84,0c-.56-.39-.8-.39-1.92-.48C295.76,6.09,296,6.09,297.12,6.19Zm5.76-.48a4.07,4.07,0,0,0,2.4.48A3.92,3.92,0,0,0,302.88,5.71Zm27.84,1c-.56,1.35-.06.9-1.44,1.44a4.07,4.07,0,0,0,2.4.48,4.15,4.15,0,0,1,.48-2.4V5.71H311v.48C317,6.15,325.74,5,330.72,6.67Zm34.56-1H336c2.18,1.37,8.36.48,11.52.48H376.8C374.62,4.82,368.44,5.71,365.28,5.71Zm43.68,0c.52.36.44.3,1.44.48C409.88,5.82,410,5.89,409,5.71Zm4.8.48c-.52-.37-.44-.3-1.44-.48C412.84,6.07,412.76,6,413.76,6.19Zm5.76-.48a4.07,4.07,0,0,0,2.4.48A3.92,3.92,0,0,0,419.52,5.71Zm-232.32,1c-.56-.39-.8-.39-1.92-.48C185.84,6.57,186.08,6.57,187.2,6.67Zm7.2-.48c.56.38.8.38,1.92.48C195.76,6.28,195.52,6.28,194.4,6.19Zm12.48.48c-.8-.55-2.36-.53-3.84-.48C203.84,6.73,205.4,6.71,206.88,6.67Zm14.4,0h34.56c-2.52-1.58-9.87-.48-13.44-.48H207.84C210.36,7.76,217.71,6.67,221.28,6.67Zm289.92,1h.48V7.15h-2.4C510.14,8.06,510,8.2,511.2,7.63Zm-244.8,0c.56.38.8.38,1.92.48C267.76,7.72,267.52,7.72,266.4,7.63Zm15.36.48c-.52-.37-.44-.3-1.44-.48C280.84,8,280.76,7.93,281.76,8.11Zm116.64.48h1.44V8.11l-1.44-.48Zm22.08-1v1h1.44C421.21,7.39,422,8,420.48,7.63Zm21.12.48a3.92,3.92,0,0,0-2.4-.48A4.07,4.07,0,0,0,441.6,8.11Zm.48-.48c1.67,1,6.11.48,8.64.48H472.8c-1.67-1.06-6.11-.48-8.64-.48Zm46.08,0a5.09,5.09,0,0,0,2.88.48A5,5,0,0,0,488.16,7.63Zm80.16,2.88h.48l.48-.48V7.63h-1ZM174.24,8.59c2.41,1.55,10,.56,13.44.48C185.27,7.51,177.71,8.51,174.24,8.59Zm14.4,0c1.41.94,5.43.55,7.68.48C194.91,8.13,190.89,8.51,188.64,8.59Zm13,.48a5,5,0,0,0-2.88-.48A5.09,5.09,0,0,0,201.6,9.07ZM203,8.59c.87.59,2.75.53,4.32.48C206.49,8.47,204.61,8.53,203,8.59Zm6.24,0c.94.64,3.13.54,4.8.48C213.14,8.43,211,8.52,209.28,8.59Zm5.28,0c2.66,1.69,18.55.54,23,.48C234.94,7.38,219.05,8.52,214.56,8.59Zm27.84.48c-.56-.39-.8-.39-1.92-.48C241,9,241.28,9,242.4,9.07Zm.48-.48c.52.36.44.3,1.44.48C243.8,8.7,243.88,8.77,242.88,8.59Zm3.36,0a4.07,4.07,0,0,0,2.4.48A3.92,3.92,0,0,0,246.24,8.59Zm7.2.48c-.52-.37-.44-.3-1.44-.48C252.52,9,252.44,8.89,253.44,9.07ZM545.76,11a4.15,4.15,0,0,0-.48-2.4c-.56,1.35-.06.9-1.44,1.44l1,1ZM489.12,9.55c.52.36.44.3,1.44.48C490,9.66,490.12,9.73,489.12,9.55Zm11,.48c-.52-.37-.44-.3-1.44-.48C499.24,9.91,499.16,9.85,500.16,10ZM503,9.55a4.07,4.07,0,0,0,2.4.48A3.92,3.92,0,0,0,503,9.55Zm6.24,2.4c.55.74.53.39,1,1.44,1.79-.49.48-2,1.92-3.36V9.55h-2.88C510,11,510.48,10.67,509.28,12ZM265.44,10c2,1.29,8.08.55,11,.48C274.49,9.21,268.4,10,265.44,10Zm28.32.48C290.93,8.69,281.9,10,277.92,10,280.75,11.84,289.78,10.59,293.76,10.51Zm3.36,0a3.92,3.92,0,0,0-2.4-.48A4.07,4.07,0,0,0,297.12,10.51Zm6.24-.48c.56.38.8.38,1.92.48C304.72,10.12,304.48,10.12,303.36,10Zm13.92.48C316.11,9.72,313,10,311,10,312.21,10.81,315.32,10.58,317.28,10.51ZM324,10c.56.38.8.38,1.92.48C325.36,10.12,325.12,10.12,324,10Zm5.76,1h2.4V10h-2.4ZM348,10.51c-2.24-1.46-9.22-.56-12.48-.48C337.76,11.48,344.74,10.59,348,10.51Zm7.68,0a3.92,3.92,0,0,0-2.4-.48A4.07,4.07,0,0,0,355.68,10.51ZM359,10c.52.36.44.3,1.44.48C360,10.14,360,10.21,359,10Zm4.32,0a4.07,4.07,0,0,0,2.4.48A3.92,3.92,0,0,0,363.36,10Zm2.88,0a6.25,6.25,0,0,0,3.36.48A6.15,6.15,0,0,0,366.24,10Zm6.24,0c2.66,1.71,11.1.56,14.88.48C384.7,8.79,376.26,10,372.48,10Zm23.52.48c-.56-.39-.8-.39-1.92-.48C394.64,10.41,394.88,10.41,396,10.51Zm3.36.48c-.71-1.2.12-.57-1.44-1C398.57,10.79,398.21,10.58,399.36,11Zm11-.48c-1.17-.79-4.28-.56-6.24-.48C405.33,10.81,408.44,10.58,410.4,10.51Zm1.44-.48c1.1.73,3.9.55,5.76.48C416.5,9.77,413.7,10,411.84,10ZM421,12.91v5.76h.48c1-3,.27-5.27.48-8.64H420C420.49,11,420.74,12.58,421,12.91Zm4.8-2.88c1.33.88,5.05.55,7.2.48C431.63,9.62,427.91,10,425.76,10Zm12.48,0c.49.38.12.17,1,.48V10Zm4.8,0c.56.38.8.38,1.92.48C444.4,10.12,444.16,10.12,443,10Zm4.8.48a3.92,3.92,0,0,0-2.4-.48A4.07,4.07,0,0,0,447.84,10.51Zm-215,0a5.09,5.09,0,0,0,2.88.48A5,5,0,0,0,232.8,10.51Zm6.72.48c-.52-.37-.44-.3-1.44-.48C238.6,10.87,238.52,10.81,239.52,11Zm8.64,0a3.92,3.92,0,0,0-2.4-.48A4.07,4.07,0,0,0,248.16,11Zm1.92-.48c.87.59,2.75.53,4.32.48C253.53,10.39,251.65,10.45,250.08,10.51Zm-69.6,1c-1.1-.74-3.9-.55-5.76-.48C175.82,11.72,178.62,11.54,180.48,11.47ZM181,11a4.07,4.07,0,0,0,2.4.48A3.92,3.92,0,0,0,181,11Zm7.2.48a5,5,0,0,0-2.88-.48A5.09,5.09,0,0,0,188.16,11.47Zm1-.48a4.07,4.07,0,0,0,2.4.48A3.92,3.92,0,0,0,189.12,11Zm7.68.48V11h-1C196.33,11.37,196,11.16,196.8,11.47Zm6.72,0c-.87-.6-2.75-.54-4.32-.48C200.07,11.58,202,11.52,203.52,11.47Zm6.24-.48c.52.36.44.3,1.44.48C210.68,11.1,210.76,11.17,209.76,11Zm359.52,1.44h1v-1h-1Zm-96-.48a6.25,6.25,0,0,0,3.36.48A6.15,6.15,0,0,0,473.28,12Zm14.4.48a6.15,6.15,0,0,0-3.36-.48A6.25,6.25,0,0,0,487.68,12.43Zm2.88,0c-.56-.39-.8-.39-1.92-.48C489.2,12.33,489.44,12.33,490.56,12.43Zm5.28,0c-.56-.39-.8-.39-1.92-.48C494.48,12.33,494.72,12.33,495.84,12.43Zm-227.52.48a5,5,0,0,0-2.88-.48A5.09,5.09,0,0,0,268.32,12.91Zm1.92,0c-.52-.37-.44-.3-1.44-.48C269.32,12.79,269.24,12.73,270.24,12.91Zm13,0c-1.66-1.09-6.57-.56-9.12-.48C275.74,13.52,280.65,13,283.2,12.91Zm1.44-.48a4.07,4.07,0,0,0,2.4.48A3.92,3.92,0,0,0,284.64,12.43Zm3.84,0c1,.69,3.52.54,5.28.48C292.74,12.22,290.24,12.36,288.48,12.43Zm8.64.48a3.92,3.92,0,0,0-2.4-.48A4.07,4.07,0,0,0,297.12,12.91Zm5.76-.48a5.09,5.09,0,0,0,2.88.48A5,5,0,0,0,302.88,12.43Zm4.8,11h31.2c3.92,0,12.55.68,14.4-.48l.48-.48c-4.95-1.24-16.25-.22-20.64,0-1.11,0-1.62-1.11-2.4-1a12.91,12.91,0,0,1-3.84,1c-4.17,0-13.3,1.39-16.32-.48l-1.44-.48c.33-3.56.61-5.48,0-8.16l.48-.48c6.34,0,15.76-1.32,21.12.48-.56,1.35-.06.9-1.44,1.44a5.74,5.74,0,0,0,1.44,1l.48.48.48-1c.42-.81-.09-1.44.48-2.4v-.48h-25C308.62,15.36,307.51,19.86,307.68,23.47Zm31.2-10.56c-.94-.64-3.13-.55-4.8-.48C335,13.07,337.21,13,338.88,12.91Zm21.6-.48H339.36c1.67,1.05,6.11.48,8.64.48h21.12C367.45,11.85,363,12.43,360.48,12.43Zm9.12,0a4.07,4.07,0,0,0,2.4.48A3.92,3.92,0,0,0,369.6,12.43Zm2.88,0c1.17.78,4.28.55,6.24.48C377.55,12.12,374.44,12.35,372.48,12.43Zm25.92,0c.52.36.44.3,1.44.48C399.32,12.54,399.4,12.61,398.4,12.43Zm9.6.48c-.52-.37-.44-.3-1.44-.48C407.08,12.79,407,12.73,408,12.91Zm4.32-.48c.52.36.44.3,1.44.48C413.24,12.54,413.32,12.61,412.32,12.43Zm2.4,0c.52.36.44.3,1.44.48C415.64,12.54,415.72,12.61,414.72,12.43Zm14.4.48c-.52-.37-.44-.3-1.44-.48C428.2,12.79,428.12,12.73,429.12,12.91Zm-217.44.48a6.15,6.15,0,0,0-3.36-.48A6.25,6.25,0,0,0,211.68,13.39Zm12.48,0h31.2c-2.27-1.42-8.74-.48-12-.48h-31.2C214.43,14.33,220.9,13.39,224.16,13.39Zm-46.08.48h-1c.49.38.12.17,1,.48Zm333.6,0h-2.4c.8.91.69.82,2.4,1Zm-68.16.48c.52.36.44.3,1.44.48C444.44,14.46,444.52,14.53,443.52,14.35Zm4.32,0c.56.38.8.38,1.92.48C449.2,14.44,449,14.44,447.84,14.35Zm2.4,0c2,1.29,8.08.55,11,.48C459.29,13.53,453.2,14.27,450.24,14.35Zm15.84,0c1.91,1.24,7.7.55,10.56.48C474.73,13.58,468.94,14.27,466.08,14.35Zm22.08,0a4.07,4.07,0,0,0,2.4.48A3.92,3.92,0,0,0,488.16,14.35ZM609.6,24.91l-1,4.32c.3,1.05,2.59,4.44,3.36,6.24,2.54-.22,2.78-.93,4.32-1.92-.05-8.18-1.62-13.34-3.36-19.2H611c-1,1.35-4.69,6-3.36,9.12C607.9,24,609.41,24.19,609.6,24.91Zm-312-9.6c-.56-.39-.8-.39-1.92-.48C296.24,15.21,296.48,15.21,297.6,15.31ZM311,14.83c1.17.78,4.28.55,6.24.48C316.11,14.52,313,14.75,311,14.83Zm-123.36,1c-.56-.39-.8-.39-1.92-.48C186.32,15.69,186.56,15.69,187.68,15.79Zm5.76-.48c.8.54,2.36.52,3.84.48C196.48,15.24,194.92,15.26,193.44,15.31Zm15.84.48h27.84c-2.1-1.32-8-.48-11-.48H198.24C200.34,16.62,206.23,15.79,209.28,15.79Zm28.32-.48c2.1,1.34,13.27.54,16.8.48C252.3,14.44,241.13,15.24,237.6,15.31Zm251.52,1v1h1.44C489.85,16,490.68,16.66,489.12,16.27Zm17.76.48c-.56-.39-.8-.39-1.92-.48C505.52,16.65,505.76,16.65,506.88,16.75Zm3.36,1c1.17-.64.34.22,1-1h1v-.48h-2.88C509.83,17,509.81,16.66,510.24,17.71Zm-234.72-.48c-.52-.37-.44-.3-1.44-.48C274.6,17.11,274.52,17.05,275.52,17.23Zm55.2,3.36h1c.14-1.29-.13-1.9.48-2.88v-1c-1.11.11-1.35.09-1.92.48s.25.46.48,1.92h-19.2C316,21.93,326.81,17.3,330.72,20.59Zm98.4-3.36c-.94-.64-3.13-.55-4.8-.48C425.26,17.39,427.45,17.29,429.12,17.23Zm9.6,0h19.2c-1.5-.95-5.35-.48-7.68-.48H431C432.54,17.7,436.39,17.23,438.72,17.23Zm-253,.48c1.17.78,4.28.55,6.24.48C190.83,17.4,187.72,17.63,185.76,17.71Zm21.12.48c-2.57-1.66-10.73-.56-14.4-.48C195.05,19.37,203.21,18.27,206.88,18.19Zm11.52,0c-1.82-1.2-7.32-.56-10.08-.48C210.14,18.9,215.65,18.26,218.4,18.19Zm3.84-.48a6.25,6.25,0,0,0,3.36.48A6.15,6.15,0,0,0,222.24,17.71Zm4.8,0a5.09,5.09,0,0,0,2.88.48A5,5,0,0,0,227,17.71Zm6.24.48c-.56-.39-.8-.39-1.92-.48C231.92,18.09,232.16,18.09,233.28,18.19Zm165.12.48h1v-1h-1Zm113.76.48v-1h-2.4C509.85,19.44,509.78,19.16,512.16,19.15Zm-24.48,0a6.15,6.15,0,0,0-3.36-.48A6.25,6.25,0,0,0,487.68,19.15Zm3.84,0a5,5,0,0,0-2.88-.48A5.09,5.09,0,0,0,491.52,19.15Zm2.88,0c-.52-.37-.44-.3-1.44-.48C493.48,19,493.4,19,494.4,19.15Zm.48-.48c.56.38.8.38,1.92.48C496.24,18.76,496,18.76,494.88,18.67Zm-215.52,1c-2.57-1.66-10.73-.56-14.4-.48C267.53,20.81,275.69,19.71,279.36,19.63Zm7.68,0c-1.17-.79-4.28-.56-6.24-.48C282,19.93,285.08,19.7,287,19.63Zm1-.48c1.1.73,3.9.55,5.76.48C292.66,18.89,289.86,19.08,288,19.15Zm18.24.48c-.8-.55-2.36-.53-3.84-.48C303.2,19.69,304.76,19.67,306.24,19.63Zm45.6,0c-2-1.32-12.86-.55-16.32-.48C337.57,20.47,348.38,19.69,351.84,19.63Zm11.52,0c-1.82-1.2-7.33-.56-10.08-.48C355.1,20.34,360.6,19.7,363.36,19.63Zm57.6,1h1c-.42-1.55.26-.74-1-1.44Zm-193.44-1c.52.36.44.3,1.44.48C228.44,19.74,228.52,19.81,227.52,19.63Zm17.28.48c-.56-.39-.8-.39-1.92-.48C243.44,20,243.68,20,244.8,20.11Zm5.28-.48a4.07,4.07,0,0,0,2.4.48A3.92,3.92,0,0,0,250.08,19.63Zm-49.44.48c.56.38.8.38,1.92.48C202,20.2,201.76,20.2,200.64,20.11Zm311.52.48h-2.4v1h2.4ZM276,21.55v-.48h-1C275.53,21.45,275.16,21.24,276,21.55Zm228.48,0c-2.83-1.82-11.86-.56-15.84-.48C491.47,22.88,500.5,21.63,504.48,21.55Zm3.84,0a5,5,0,0,0-2.88-.48A5.09,5.09,0,0,0,508.32,21.55Zm-205.44,0c.56.38.8.38,1.92.48C304.24,21.64,304,21.64,302.88,21.55Zm139.2.48h7.68v1.44c2-.27,1.38.35,1.44-1.44h1.92v1.44C455,22.74,455.24,22,458.4,22v1.44h1.92l-1-1h-.48c-.95-.27,1-.48,1-.48v-.48c-16.22,0-30,.06-43.68,1,1.7,1.11,15,.95,17.76,1,1.9,0,4.61.27,5.76-.48C442.09,23,442,23.28,442.08,22Zm-.48,0a1.42,1.42,0,0,1-1.92,0Zm20.16-.48c-.19,1-.12.92-.48,1.44v.48h1.92c-.23-1.09-.41-.54,0-1.44C462.68,21.66,462.76,21.73,461.76,21.55Zm-270.24,1c-.56-.39-.8-.39-1.92-.48C190.16,22.41,190.4,22.41,191.52,22.51Zm5.76,0A5,5,0,0,0,194.4,22,5.09,5.09,0,0,0,197.28,22.51Zm7.68,0c-.94-.64-3.13-.55-4.8-.48C201.1,22.67,203.29,22.57,205,22.51Zm4.8,0c-.52-.37-.44-.3-1.44-.48C208.84,22.39,208.76,22.33,209.76,22.51ZM243.84,22h-31.2c2.27,1.42,8.74.48,12,.48h31.2C253.57,21.09,247.1,22,243.84,22Zm167,.48c-.52-.37-.44-.3-1.44-.48C410,22.39,409.88,22.33,410.88,22.51Zm-38.4.48c-2.1-1.35-13.27-.55-16.8-.48v1A146.89,146.89,0,0,1,372.48,23Zm25.92-.48c.56.38.8.38,1.92.48C399.76,22.6,399.52,22.6,398.4,22.51Zm74.4.48h-1c.49.38.12.17,1,.48Zm17.28.48c-.52-.37-.44-.3-1.44-.48C489.16,23.35,489.08,23.29,490.08,23.47ZM177.6,24.91c-1.1-.74-3.9-.55-5.76-.48C172.94,25.16,175.74,25,177.6,24.91Zm29.28,0c-2.49-1.59-16.93-.55-21.12-.48C188.25,26,202.69,25,206.88,24.91Zm19.68-.48h-19.2c1.5.95,5.35.48,7.68.48h19.2C232.74,24,228.89,24.43,226.56,24.43Zm9.12,0c1.66,1.09,6.57.55,9.12.48C243.14,23.82,238.23,24.35,235.68,24.43Zm13.44.48c-.8-.55-2.36-.53-3.84-.48C246.08,25,247.64,25,249.12,24.91Zm1.44-.48c.52.36.44.3,1.44.48C251.48,24.54,251.56,24.61,250.56,24.43Zm232.8,1.44a3.92,3.92,0,0,0-2.4-.48A4.07,4.07,0,0,0,483.36,25.87Zm5.28,0c-.87-.6-2.75-.54-4.32-.48C485.19,26,487.07,25.92,488.64,25.87ZM276,26.35c-2-1.3-8.08-.56-11-.48C267,27.16,273,26.42,276,26.35Zm1-.48c2.4,1.53,16.11.54,20.16.48C294.72,24.82,281,25.8,277,25.87Zm29.28.48a6.15,6.15,0,0,0-3.36-.48A6.25,6.25,0,0,0,306.24,26.35Zm-131.52.48a6.25,6.25,0,0,0,3.36.48A6.15,6.15,0,0,0,174.72,26.83Zm12.48.48c-.52-.37-.44-.3-1.44-.48C186.28,27.19,186.2,27.13,187.2,27.31Zm1.92-.48a5.09,5.09,0,0,0,2.88.48A5,5,0,0,0,189.12,26.83Zm6.72.48c-.52-.37-.44-.3-1.44-.48C194.92,27.19,194.84,27.13,195.84,27.31Zm9.6,0c-1-.69-3.52-.55-5.28-.48C201.18,27.52,203.68,27.37,205.44,27.31Zm37.44-.48c.52.36.44.3,1.44.48C243.8,26.94,243.88,27,242.88,26.83Zm266.88.48h-1c.49.38.12.17,1,.48Zm3.84.48a5,5,0,0,0-2.88-.48A5.09,5.09,0,0,0,513.6,27.79Zm24.48-.48a5.19,5.19,0,0,1-.48,2.88V34h.48a20.55,20.55,0,0,0,1-6.72Zm-83.52,1c-.52-.37-.44-.3-1.44-.48C453.64,28.15,453.56,28.09,454.56,28.27Zm.48-.48a6.25,6.25,0,0,0,3.36.48A6.15,6.15,0,0,0,455,27.79Zm7.2.48a5,5,0,0,0-2.88-.48A5.09,5.09,0,0,0,462.24,28.27Zm1-.48c2.49,1.61,10.35.56,13.92.48C474.63,26.66,466.77,27.71,463.2,27.79Zm17.28,0a6.25,6.25,0,0,0,3.36.48A6.15,6.15,0,0,0,480.48,27.79Zm6.24,0c.56.38.8.38,1.92.48C488.08,27.88,487.84,27.88,486.72,27.79Zm47,2.4.48,1.44c2.08-.55.58-.85,1.92-2.4V27.79l-2.88.48C533.39,29.38,533.37,29.62,533.76,30.19ZM265.44,28.27a5.09,5.09,0,0,0,2.88.48A5,5,0,0,0,265.44,28.27Zm6.24,0c.52.36.44.3,1.44.48C272.6,28.38,272.68,28.45,271.68,28.27Zm6.72.48c-.52-.37-.44-.3-1.44-.48C277.48,28.63,277.4,28.57,278.4,28.75Zm7.2-.48c.56.38.8.38,1.92.48C287,28.36,286.72,28.36,285.6,28.27Zm9.12,0a5.09,5.09,0,0,0,2.88.48A5,5,0,0,0,294.72,28.27Zm13,.48c-1-.69-3.52-.55-5.28-.48C303.42,29,305.92,28.81,307.68,28.75Zm1.92-.48c.56.38.8.38,1.92.48C311,28.36,310.72,28.36,309.6,28.27Zm6.72,0c.56.38.8.38,1.92.48C317.68,28.36,317.44,28.36,316.32,28.27Zm16.8,0c.52.36.44.3,1.44.48C334,28.38,334.12,28.45,333.12,28.27Zm-123.84.48c1.17.78,4.28.55,6.24.48C214.35,28.44,211.24,28.67,209.28,28.75Zm9.6.48a5,5,0,0,0-2.88-.48A5.09,5.09,0,0,0,218.88,29.23Zm1-.48c2.16,1.4,8.84.55,12,.48C229.68,27.83,223,28.67,219.84,28.75Zm12.48,0c2.36,1.5,15.71.54,19.68.48v1.44l-2.88.48v.48h5.28c-.89-1-1.09-.57-1.44-2.4h3.36C253.58,27.49,237,28.68,232.32,28.75Zm299,0h-1c.06,1.87.26,4.65-.48,5.76V36h.48A20,20,0,0,0,531.36,28.75Zm-141.6,1-.48.48a18.83,18.83,0,0,1,1,5.76h1.44a19,19,0,0,1-1-6.24Zm121.44,0c.8.54,2.36.52,3.84.48C514.24,29.64,512.68,29.66,511.2,29.71Zm-245.28.48c.56.38.8.38,1.92.48C267.28,30.28,267,30.28,265.92,30.19Zm175.68,0c1.82,1.19,7.32.55,10.08.48C449.86,29.47,444.35,30.11,441.6,30.19Zm20.64.48c-1.66-1.09-6.57-.56-9.12-.48C454.78,31.28,459.69,30.74,462.24,30.67Zm177.12,1h.48c-.19-1-.12-.93-.48-1.44ZM189.6,31.15c.56.38.8.38,1.92.48C191,31.24,190.72,31.24,189.6,31.15Zm18.72.48c-2.74-1.77-11.48-.56-15.36-.48C195.7,32.91,204.44,31.71,208.32,31.63Zm26.88-.48H209.28c1.93,1.21,7.23.48,10.08.48h25.92C243.35,30.42,238.05,31.15,235.2,31.15Zm10.56,0c.56.38.8.38,1.92.48C247.12,31.24,246.88,31.24,245.76,31.15Zm235.2,1a5.09,5.09,0,0,0,2.88.48A5,5,0,0,0,481,32.11Zm7.68.48c-.8-.55-2.36-.53-3.84-.48C485.6,32.65,487.16,32.63,488.64,32.59ZM624,32.11h-1l-.48.48v1.92H625A5,5,0,0,0,624,32.11Zm-357.6.48a4.07,4.07,0,0,0,2.4.48A3.92,3.92,0,0,0,266.4,32.59Zm5.76.48c-.56-.39-.8-.39-1.92-.48C270.8,33,271,33,272.16,33.07Zm1.92-.48c.52.36.44.3,1.44.48C275,32.7,275.08,32.77,274.08,32.59Zm4.8.48c-.56-.39-.8-.39-1.92-.48C277.52,33,277.76,33,278.88,33.07Zm9.6-.48c.56.38.8.38,1.92.48C289.84,32.68,289.6,32.68,288.48,32.59Zm14.4,0c.56.38.8.38,1.92.48C304.24,32.68,304,32.68,302.88,32.59Zm3.84.48c-.52-.37-.44-.3-1.44-.48C305.8,33,305.72,32.89,306.72,33.07ZM188.16,34a3.92,3.92,0,0,0-2.4-.48A4.07,4.07,0,0,0,188.16,34Zm24.48-.48h-23c1.76,1.1,6.48.48,9.12.48h23C220,32.92,215.28,33.55,212.64,33.55Zm11,0a4.07,4.07,0,0,0,2.4.48A3.92,3.92,0,0,0,223.68,33.55Zm2.88,0c.94.64,3.13.54,4.8.48C230.42,33.39,228.23,33.48,226.56,33.55ZM533.28,34v6.72l.48-.48c1-.8,1.14-1.89,1.92-2.88C535.41,35.28,535.07,34.62,533.28,34Zm-64.8.48c1.82,1.19,7.32.55,10.08.48C476.74,33.79,471.23,34.43,468.48,34.51Zm10.56,0c1.1.73,3.9.55,5.76.48C483.7,34.25,480.9,34.44,479,34.51Zm-203,1c-2-1.3-8.08-.56-11-.48C267,36.28,273,35.54,276,35.47Zm9.6,0c-1.58-1-6.19-.56-8.64-.48C278.54,36,283.15,35.54,285.6,35.47Zm.48-.48c.52.36.44.3,1.44.48C287,35.1,287.08,35.17,286.08,35Zm33.12.48c-2.1-1.35-13.27-.55-16.8-.48C304.5,36.33,315.67,35.53,319.2,35.47ZM205.44,36c-1.66-1.09-6.57-.56-9.12-.48-2.07,1.35-8.46.55-11.52.48C187.79,37.84,201.63,36.1,205.44,36Zm24.48,0c-.52-.37-.44-.3-1.44-.48C229,35.83,228.92,35.77,229.92,36Zm12,0c-.94-.64-3.13-.55-4.8-.48C238.06,36.11,240.25,36,241.92,36Zm1.44-.48c.56.38.8.38,1.92.48C244.72,35.56,244.48,35.56,243.36,35.47Zm3.84.48c-.52-.37-.44-.3-1.44-.48C246.28,35.83,246.2,35.77,247.2,36Zm8.64,0a3.92,3.92,0,0,0-2.4-.48A4.07,4.07,0,0,0,255.84,36Zm162.24,1.92c-.43-1.74-.29-1.47-1.92-1.92a5.66,5.66,0,0,0,1,1.44v.48Zm97.44-1c-.56-.39-.8-.39-1.92-.48C514.16,36.81,514.4,36.81,515.52,36.91Zm-63.84,0h-1c.49.38.12.17,1,.48Zm4.32.48a6.15,6.15,0,0,0-3.36-.48A6.25,6.25,0,0,0,456,37.39Zm3.36,0a3.92,3.92,0,0,0-2.4-.48A4.07,4.07,0,0,0,459.36,37.39Zm.48-.48a4.07,4.07,0,0,0,2.4.48A3.92,3.92,0,0,0,459.84,36.91Zm-192,.48c.56.38.8.38,1.92.48C269.2,37.48,269,37.48,267.84,37.39Zm3.84.48c-.52-.37-.44-.3-1.44-.48C270.76,37.75,270.68,37.69,271.68,37.87Zm31.2-.48c.87.59,2.75.53,4.32.48C306.33,37.27,304.45,37.33,302.88,37.39Zm233.28,7.68h.48a17.38,17.38,0,0,0,1.92-7.68h-1c-.31,1.27-.66,5-1.44,6.24ZM204.48,38.35c-2.74-1.77-11.48-.56-15.36-.48C191.86,39.63,200.6,38.43,204.48,38.35Zm2.4,0c-.52-.37-.44-.3-1.44-.48C206,38.23,205.88,38.17,206.88,38.35Zm8.16,0a5,5,0,0,0-2.88-.48A5.09,5.09,0,0,0,215,38.35Zm1.44-.48c.94.64,3.13.54,4.8.48C220.34,37.71,218.15,37.8,216.48,37.87Zm-77.76.48h-1c.49.38.12.17,1,.48Zm28.32.48c-.56-.39-.8-.39-1.92-.48C165.68,38.73,165.92,38.73,167,38.83Zm3.84-.48a4.07,4.07,0,0,0,2.4.48A3.92,3.92,0,0,0,170.88,38.35Zm360,1.92v1.92h.48a3.6,3.6,0,0,0,0-3.36C531.17,39.81,531.24,39.75,530.88,40.27Zm-261.6-.48a3.92,3.92,0,0,0-2.4-.48A4.07,4.07,0,0,0,269.28,39.79Zm.48-.48a4.07,4.07,0,0,0,2.4.48A3.92,3.92,0,0,0,269.76,39.31Zm3.84,0c.56.38.8.38,1.92.48C275,39.4,274.72,39.4,273.6,39.31Zm-66.24,1.44c-2.4-1.53-16.11-.55-20.16-.48,2.66,1.71,11.1.56,14.88.48v1.44c-1.77-.06-4.25-.21-5.28.48h-1v.48h10.08v-.48a6.6,6.6,0,0,0-2.4-.48V40.75Zm20.16-.48H207.84c1.59,1,5.73.48,8.16.48h19.68C234.09,39.74,230,40.27,227.52,40.27Zm10.08,0c1.41.94,5.43.55,7.68.48C243.87,39.81,239.85,40.19,237.6,40.27Zm8.16,0c1.5,1,5.81.55,8.16.48C252.42,39.76,248.11,40.19,245.76,40.27Zm364.8,0c-.06,6.95-1,17.34,2.4,21.12v.48a7.47,7.47,0,0,0,1.92-1c2.78-6.77.76-15.19-2.88-20.64ZM166.29,43a42.53,42.53,0,0,0,9.19-.17A59.38,59.38,0,0,0,166.29,43Zm307.47-1.72a4.07,4.07,0,0,0,2.4.48A3.92,3.92,0,0,0,473.76,41.23Zm6.24,0a6.25,6.25,0,0,0,3.36.48A6.15,6.15,0,0,0,480,41.23Zm4.32,0c.56.38.8.38,1.92.48C485.68,41.32,485.44,41.32,484.32,41.23ZM276,42.19c-2-1.3-8.08-.56-11-.48C267,43,273,42.26,276,42.19Zm26.88-.48c.87.59,2.75.53,4.32.48C306.33,41.59,304.45,41.65,302.88,41.71Zm113.76.48c-.52-.37-.44-.3-1.44-.48C415.72,42.07,415.64,42,416.64,42.19Zm-131,1.92h7.68v-.48c-3.42-1.07-10.23-1.55-16.8-1.44C278.9,43.68,283.71,42.13,285.6,44.11Zm-95-1.44a6.25,6.25,0,0,0,3.36.48A6.15,6.15,0,0,0,190.56,42.67Zm29.76.48a3.92,3.92,0,0,0-2.4-.48A4.07,4.07,0,0,0,220.32,43.15Zm257.76,1c-2.49-1.59-16.93-.55-21.12-.48C459.45,45.21,473.89,44.17,478.08,44.11Zm-210.72,0c.87.59,2.75.53,4.32.48C270.81,44,268.93,44.05,267.36,44.11Zm40.32.48c-1.1-.74-3.9-.55-5.76-.48C303,44.84,305.82,44.66,307.68,44.59Zm94.56,4.32,1,1c1-.19.92-.12,1.44-.48A12.21,12.21,0,0,0,408,46l.48-.48H408c-.56-1.36-.06-.91-1.44-1.44a23.48,23.48,0,0,1-3.36,4.8Zm20.16-4.32a3.92,3.92,0,0,0-2.4-.48A4.07,4.07,0,0,0,422.4,44.59Zm2.4,0c-.52-.37-.44-.3-1.44-.48C423.88,44.47,423.8,44.41,424.8,44.59Zm2.88,0c-.52-.37-.44-.3-1.44-.48C426.76,44.47,426.68,44.41,427.68,44.59Zm107,1.92v-2.4h-1c.11,1.11.09,1.35.48,1.92v.48Zm-325-1.92c1.84,1.16,6.86.48,9.6.48h23.52c-1.84-1.16-6.86-.48-9.6-.48Zm33.6,0c.56.38.8.38,1.92.48C244.72,44.68,244.48,44.68,243.36,44.59Zm91.2.48c-.56-.39-.8-.39-1.92-.48C333.2,45,333.44,45,334.56,45.07Zm4.8,0c-.52-.37-.44-.3-1.44-.48C338.44,45,338.36,44.89,339.36,45.07Zm2.88-.48c.49.38.12.17,1,.48v-.48Zm189.6,1v-1h-1.92V47h1A5.32,5.32,0,0,1,531.84,45.55Zm-182.4-.48c.87.59,2.75.53,4.32.48C352.89,45,351,45,349.44,45.07Zm11,.48c-.87-.6-2.75-.54-4.32-.48C357,45.66,358.91,45.6,360.48,45.55Zm4.8-.48c.56.38.8.38,1.92.48C366.64,45.16,366.4,45.16,365.28,45.07Zm173.76,0h-.48a28.06,28.06,0,0,0-3.36,11.52,4.15,4.15,0,0,0,2.4-.48h1c-.06-2.57-.61-7.45.48-9.12ZM277.44,47c-.56-.39-.8-.39-1.92-.48C276.08,46.89,276.32,46.89,277.44,47Zm25.92,0a3.92,3.92,0,0,0-2.4-.48A4.07,4.07,0,0,0,303.36,47Zm9.6,0c-.56-.39-.8-.39-1.92-.48C311.6,46.89,311.84,46.89,313,47Zm308.16,1V46.51h-.48c-.57,1.41-1,3.27-1.92,4.32v1h1.92C620.61,50.3,620.57,48.76,621.12,48Zm-392.64-.48c-2.49-1.59-16.93-.55-21.12-.48C209.85,48.57,224.29,47.53,228.48,47.47ZM229,47c2,1.29,8.08.55,11,.48C238,46.17,231.92,46.91,229,47Zm11.52,0c.94.64,3.13.54,4.8.48C244.34,46.83,242.15,46.92,240.48,47Zm5.28,0c1.91,1.24,7.7.55,10.56.48C254.41,46.22,248.62,46.91,245.76,47Zm286.56,4.32a6.43,6.43,0,0,0-.48-3.36c-.33,1-.61,1.42,0,2.4v1Zm-262.56-2.4a3.92,3.92,0,0,0-2.4-.48A4.07,4.07,0,0,0,269.76,48.91Zm2.88,0c-.52-.37-.44-.3-1.44-.48C271.72,48.79,271.64,48.73,272.64,48.91Zm9.12,0c-1.25-.84-4.67-.56-6.72-.48C276.29,49.26,279.71,49,281.76,48.91Zm157.92-.48c.56.38.8.38,1.92.48C441,48.52,440.8,48.52,439.68,48.43Zm9.12,0c-1,.69-3.52.54-5.28.48,2.17,1.38,13.33.06,17.28,0C458.64,47.51,452,48.35,448.8,48.43Zm16.32.48a6.15,6.15,0,0,0-3.36-.48A6.25,6.25,0,0,0,465.12,48.91Zm17.28-.48H469c2.26,1.4,7.8-.42,10.08,1,1.93.7.81,1.09,1.44,1.92.49.38.12.17,1,.48v-.48c.42-.63-.11-1.43,1-2.4Zm-283.2.48c-1.74,1.14-6.95.55-9.6.48,2.18,1.4,14.08.54,17.76.48C205.87,48.87,201.3,48.89,199.2,48.91Zm52.8,0c.52.36.44.3,1.44.48C252.92,49,253,49.09,252,48.91Zm2.4,0c.56.38.8.38,1.92.48C255.76,49,255.52,49,254.4,48.91Zm46.56,0H282.24c1.7,1.1,13.22,1.32,15.84,1.44.8,3.22,1.27,24.38.48,25.92v1H301c-.52-3-1.21-16.2,0-18.24-.28-3-1.19-7.26,0-9.12Zm6.72,1.44h1.44c-.49.38-.12.17-1,.48v1.92h1l.48-.48V50.35h44.16v-1H321.12c-3.37,0-10.12,1-12.48-.48C307.44,49.61,308.08,48.79,307.68,50.35Zm115.68-1.44c2,1.77,6.57.59,10.08.48C431.62,48.19,426.11,48.83,423.36,48.91Zm13.92,0c.56.38.8.38,1.92.48C438.64,49,438.4,49,437.28,48.91Zm-224.64,1a3.92,3.92,0,0,0-2.4-.48A4.07,4.07,0,0,0,212.64,49.87Zm6.72,0c-.52-.37-.44-.3-1.44-.48C218.44,49.75,218.36,49.69,219.36,49.87Zm23.52-.48c.49.38.12.17,1,.48v-.48Zm156,0a5.09,5.09,0,0,0,2.88.48A5,5,0,0,0,398.88,49.39Zm7.2,0c2.14,1.37,13.68.54,17.28.48C421.22,48.49,409.68,49.32,406.08,49.39ZM270.24,51.31c-.94-.64-3.13-.55-4.8-.48C266.38,51.47,268.57,51.37,270.24,51.31Zm1-.48a5.09,5.09,0,0,0,2.88.48A5,5,0,0,0,271.2,50.83Zm8.64.48c-.94-.64-3.13-.55-4.8-.48C276,51.47,278.17,51.37,279.84,51.31Zm25.92-.48h-1c.49.38.12.17,1,.48Zm-85.92,1a3.92,3.92,0,0,0-2.4-.48A4.07,4.07,0,0,0,219.84,51.79Zm8.64,0c-.56-.39-.8-.39-1.92-.48C227.12,51.69,227.36,51.69,228.48,51.79Zm5.76,0c-.56-.39-.8-.39-1.92-.48C232.88,51.69,233.12,51.69,234.24,51.79Zm1.44-.48a4.07,4.07,0,0,0,2.4.48A3.92,3.92,0,0,0,235.68,51.31Zm9.12.48c-.56-.39-.8-.39-1.92-.48C243.44,51.69,243.68,51.69,244.8,51.79Zm5.28,0c-.87-.6-2.75-.54-4.32-.48C246.63,51.9,248.51,51.84,250.08,51.79Zm81.6,0h-1c.49.38.12.17,1,.48Zm77.76,0c.52.36.44.3,1.44.48C410.36,51.9,410.44,52,409.44,51.79Zm12.48,0h-1c.49.38.12.17,1,.48Zm108.48,0v5.28h1.44c0-2-.1-3.25-1-4.32v-1Zm-88.8,1c1.41.94,5.43.55,7.68.48C447.87,52.29,443.85,52.67,441.6,52.75Zm37,0c.56.55,1.36.88,1.92,1.44h1.44C481.21,52.88,480.49,52.8,478.56,52.75Zm-209.76.48a4.07,4.07,0,0,0,2.4.48A3.92,3.92,0,0,0,268.8,53.23Zm8.16,0a5.09,5.09,0,0,0,2.88.48A5,5,0,0,0,277,53.23Zm3.36,0c.52.36.44.3,1.44.48C281.24,53.34,281.32,53.41,280.32,53.23Zm2.4,0a4.07,4.07,0,0,0,2.4.48A3.92,3.92,0,0,0,282.72,53.23Zm10.08,0a4.07,4.07,0,0,0,2.4.48A3.92,3.92,0,0,0,292.8,53.23Zm4.32,0h-1c.49.38.12.17,1,.48Zm12.48,1.44v-1l-1.44-.48-.48,1.44Zm-100.8-1c2.18,1.36,8.36.48,11.52.48h30.24c-2.18-1.37-8.36-.48-11.52-.48Zm121.92,1h1v-1h-1Zm90.24,0h1v-1h-1Zm-10.08-.48h-1c.49.38.12.17,1,.48Zm71,1.44-2.88-1c.44,1,.42.7,1,1.44h1.92Zm-210.24,0c-.94-.64-3.13-.55-4.8-.48C267.82,55.79,270,55.69,271.68,55.63Zm-57.6,1c-.56-.39-.8-.39-1.92-.48C212.72,56.49,213,56.49,214.08,56.59Zm4.32,0c-.56-.39-.8-.39-1.92-.48C217,56.49,217.28,56.49,218.4,56.59Zm21.6-.48a4.07,4.07,0,0,0,2.4.48A3.92,3.92,0,0,0,240,56.11Zm7.2.48c-.52-.37-.44-.3-1.44-.48C246.28,56.47,246.2,56.41,247.2,56.59Zm3.36-.48c.56.38.8.38,1.92.48C251.92,56.2,251.68,56.2,250.56,56.11Zm57.6,0v1h1.44C308.89,55.87,309.72,56.5,308.16,56.11Zm22.56,1h1v-1h-1Zm80.16-1h-1v1h1Zm11.52.48c-.56-.39-.8-.39-1.92-.48C421,56.49,421.28,56.49,422.4,56.59Zm41.76.48c.94.64,3.13.54,4.8.48C468,56.91,465.83,57,464.16,57.07Zm14.4,0L480,58.51h1.92C481.21,57.2,480.49,57.12,478.56,57.07ZM276,58c-1.91-1.25-7.7-.56-10.56-.48C267.35,58.79,273.14,58.1,276,58Zm3.84,0a5,5,0,0,0-2.88-.48A5.09,5.09,0,0,0,279.84,58ZM288,58c-1.25-.84-4.67-.56-6.72-.48C282.53,58.38,286,58.1,288,58Zm5.28,0c-.52-.37-.44-.3-1.44-.48C292.36,57.91,292.28,57.85,293.28,58Zm15.36-.48a11.16,11.16,0,0,0-.48,3.84h1.44a10.63,10.63,0,0,1,0-2.88ZM228.48,58c.8.54,2.36.52,3.84.48C231.52,58,230,58,228.48,58Zm5.76.48c-.52-.37-.44-.3-1.44-.48C233.32,58.39,233.24,58.33,234.24,58.51Zm1.92-.48a4.07,4.07,0,0,0,2.4.48A3.92,3.92,0,0,0,236.16,58Zm3.36,0a5.09,5.09,0,0,0,2.88.48A5,5,0,0,0,239.52,58Zm6.24,1H252v-.48c-1-.23-1.84-.22-3.36-.48a5.09,5.09,0,0,1-2.88.48Zm10.08,0c-.56-.39-.8-.39-1.92-.48C254.48,58.89,254.72,58.89,255.84,59Zm74.88-.48v1h1.44C331.45,58.27,332.28,58.9,330.72,58.51Zm68.16,0c.56.38.8.38,1.92.48C400.24,58.6,400,58.6,398.88,58.51Zm10.08,0c.56.38.8.38,1.92.48C410.32,58.6,410.08,58.6,409,58.51Zm13,.48c-.52-.37-.44-.3-1.44-.48C421,58.87,420.92,58.81,421.92,59Zm60,1.44A4,4,0,0,0,480,59c-.52.36-.44.3-1.44.48.67.58,1.34.73,1.92,1.44.83-.31.47-.1,1-.48Zm-36-.48c-.56-.39-.8-.39-1.92-.48C444.56,59.85,444.8,59.85,445.92,60Zm3.84-.48c.56.38.8.38,1.92.48C451.12,59.56,450.88,59.56,449.76,59.47Zm-178.08,1c-1-.69-3.52-.55-5.28-.48C267.42,60.64,269.92,60.49,271.68,60.43Zm1.44-.48a5.09,5.09,0,0,0,2.88.48A5,5,0,0,0,273.12,60Zm6.72.48a6.15,6.15,0,0,0-3.36-.48A6.25,6.25,0,0,0,279.84,60.43Zm1.92-.48c1.17.78,4.28.55,6.24.48C286.83,59.64,283.72,59.87,281.76,60Zm11,.48a3.92,3.92,0,0,0-2.4-.48A4.07,4.07,0,0,0,292.8,60.43Zm.48-.48c.56.38.8.38,1.92.48C294.64,60,294.4,60,293.28,60Zm-85,.48a4.07,4.07,0,0,0,2.4.48A3.92,3.92,0,0,0,208.32,60.43Zm4.32,0c.49.38.12.17,1,.48v-.48Zm9.6.48c-.56-.39-.8-.39-1.92-.48C220.88,60.81,221.12,60.81,222.24,60.91Zm3.36,0c-.52-.37-.44-.3-1.44-.48C224.68,60.79,224.6,60.73,225.6,60.91Zm.48-.48c1,.69,3.52.54,5.28.48C230.34,60.22,227.84,60.36,226.08,60.43Zm12.48.48c-1.1-.74-3.9-.55-5.76-.48C233.9,61.16,236.7,61,238.56,60.91Zm1-.48a5.09,5.09,0,0,0,2.88.48A5,5,0,0,0,239.52,60.43Zm3.84,0c.56.38.8.38,1.92.48C244.72,60.52,244.48,60.52,243.36,60.43Zm88.8.48-1.44-.48c.1,1.26-.28.74,1.44,1Zm88.32.48h1.44c-.71-1.2.12-.57-1.44-1Zm-22.08-.48a4.07,4.07,0,0,0,2.4.48A3.92,3.92,0,0,0,398.4,60.91Zm11,0c.52.36.44.3,1.44.48C410.36,61,410.44,61.09,409.44,60.91Zm70.08,1.44c.57.49.43.1,1.44.48v-1L479,61.39C479.35,62.22,479.13,61.86,479.52,62.35Zm-212.64-.48c.52.36.44.3,1.44.48C267.8,62,267.88,62.05,266.88,61.87ZM253,62.35c-1,.1-.05.72.48,1C253.92,62.6,253.13,62.49,253,62.35Zm177.12,0h-2.4c.77,1.06.37,1.56,1.44.48h1Zm1.44,0c.52.36.44.3,1.44.48C432.44,62.46,432.52,62.53,431.52,62.35Zm-220.32,1a3.92,3.92,0,0,0-2.4-.48A4.07,4.07,0,0,0,211.2,63.31Zm3.36,0c-.56-.39-.8-.39-1.92-.48C213.2,63.21,213.44,63.21,214.56,63.31ZM240,62.83a4.07,4.07,0,0,0,2.4.48A3.92,3.92,0,0,0,240,62.83Zm68.16,0v1h1.44C308.89,62.59,309.72,63.22,308.16,62.83Zm22.56,0v1h1.44C331.45,62.59,332.28,63.22,330.72,62.83Zm70.08,0h-1.92c.85,1.25.28.72,1.44.48h.48Zm10.08,0h-1c.08,1.3-.35.6,1,1Zm10.08,1h1.44c-.71-1.2.12-.57-1.44-1Zm-145.44,1c-1.58-1-6.19-.56-8.64-.48C268.46,65.31,273.07,64.82,275.52,64.75Zm-34.08.48c-.52-.37-.44-.3-1.44-.48C240.52,65.11,240.44,65.05,241.44,65.23Zm2.4-.48c.52.36.44.3,1.44.48C244.76,64.86,244.84,64.93,243.84,64.75Zm3.84,0c.8.54,2.36.52,3.84.48C250.72,64.68,249.16,64.7,247.68,64.75Zm6.72.48a3.92,3.92,0,0,0-2.4-.48A4.07,4.07,0,0,0,254.4,65.23Zm53.76,0v2.88h1.44c-.18-1.36-.45-1,0-1.92C308.89,65,309.72,65.62,308.16,65.23Zm22.56,0v1h1.44C331.45,65,332.28,65.62,330.72,65.23Zm68.16,0c.56.38.8.38,1.92.48C400.24,65.32,400,65.32,398.88,65.23Zm10.56,0,1,1h.48C410.17,65,411,65.62,409.44,65.23Zm12.48.48c-.52-.37-.44-.3-1.44-.48C421,65.59,420.92,65.53,421.92,65.71Zm-227,1.92c-.42-1.14-.18-.8-1-1.44.31.83.09.47.48,1v.48Zm259.68-1.44h-1c.49.38.12.17,1,.48Zm-189.12.48c1.17.78,4.28.55,6.24.48C270.51,66.36,267.4,66.59,265.44,66.67Zm6.72,0c.52.36.44.3,1.44.48C273.08,66.78,273.16,66.85,272.16,66.67Zm3.36,0h-1c.49.38.12.17,1,.48Zm1.44,0a6.25,6.25,0,0,0,3.36.48A6.15,6.15,0,0,0,277,66.67Zm11.52.48a3.92,3.92,0,0,0-2.4-.48A4.07,4.07,0,0,0,288.48,67.15Zm3.36,0c-.52-.37-.44-.3-1.44-.48C290.92,67,290.84,67,291.84,67.15Zm3.36,0a5,5,0,0,0-2.88-.48A5.09,5.09,0,0,0,295.2,67.15ZM215,67.63a3.92,3.92,0,0,0-2.4-.48A4.07,4.07,0,0,0,215,67.63Zm1.92-.48a4.07,4.07,0,0,0,2.4.48A3.92,3.92,0,0,0,217,67.15Zm3.84,0c1.17.78,4.28.55,6.24.48C225.87,66.84,222.76,67.07,220.8,67.15Zm6.72,0c2.57,1.66,10.73.56,14.4.48C239.35,66,231.19,67.07,227.52,67.15Zm193,1h1.44c-.71-1.2.12-.57-1.44-1Zm-90.24-.48c.56.38.8.38,1.92.48C331.6,67.72,331.36,67.72,330.24,67.63Zm68.64,0c.56.38.8.38,1.92.48C400.24,67.72,400,67.72,398.88,67.63Zm10.56,0c.52.36.44.3,1.44.48C410.36,67.74,410.44,67.81,409.44,67.63ZM212.16,70c-.94-.63-4.12-.78-5.28-1C207.92,70.23,209.85,70.13,212.16,70Zm37.44,0-1-1C248,69.73,248.31,70.46,249.6,70Zm-30.24,0c-.87-.6-2.75-.54-4.32-.48C215.91,70.14,217.79,70.08,219.36,70Zm22.56,0c-.52-.37-.44-.3-1.44-.48C241,69.91,240.92,69.85,241.92,70Zm3.84-.48h-1c.49.38.12.17,1,.48Zm.48,0c.49.38.12.17,1,.48v-.48Zm61.92,0v1h1.44C308.89,69.31,309.72,69.94,308.16,69.55Zm22.56,0v1h1.44C331.45,69.31,332.28,69.94,330.72,69.55ZM400.8,70a5.86,5.86,0,0,0-1.92-.48v1h1.92Zm10.08-.48h-1c.08,1.3-.35.6,1,1Zm9.6,1h1.44c-.71-1.2.12-.57-1.44-1Zm145-.48v1.44h1C566,69.92,566.66,70.73,565.44,70Zm-94.56.48c.56.38.8.38,1.92.48C472.24,70.6,472,70.6,470.88,70.51ZM297.12,72c-.31-.83-.09-.47-.48-1v1Zm-86.4-.48c1,1.12,2.57,1,4.8,1C214.59,71.79,212,71.57,210.72,71.47ZM230.4,72v.48h12.48V72a6.6,6.6,0,0,0-2.4-.48C238.66,72.66,233.15,72,230.4,72Zm18.72,0a5,5,0,0,0-2.88-.48A5.09,5.09,0,0,0,249.12,72Zm.48-.48c.56.38.8.38,1.92.48C251,71.56,250.72,71.56,249.6,71.47ZM203,72.91l-.48-1h-1c.43,3.7,3.79,14.68,5.76,17.28.63,1.57,1.34,1.39,2.4,2.4.36-.52.3-.45.48-1.44a9.67,9.67,0,0,1,4.8,3.36h6.24v-.48l-2.88-1c-.47.12-.21-.15-.48.48a4.85,4.85,0,0,1-2.4-1.44c-.36-.52-.3-.45-.48-1.44h1.44c-1.17-2.32-2.75-3.42-2.88-6.72-2.74-.3-5.24-3.22-6.24-5.28a6.38,6.38,0,0,1,1.92-1v-1c-2.09.24-2.08.54-2.88,1.92C203.72,77.09,204.3,74.79,203,72.91Zm21.12-.48c-1.25-.84-4.67-.56-6.72-.48C218.69,72.78,222.11,72.5,224.16,72.43Zm5.28,0c-.56-.39-.8-.39-1.92-.48C228.08,72.33,228.32,72.33,229.44,72.43ZM308.16,72v1h1.44C308.89,71.71,309.72,72.34,308.16,72Zm22.56,0v1h1.44C331.45,71.71,332.28,72.34,330.72,72Zm68.16,0c.56.38.8.38,1.92.48C400.24,72,400,72,398.88,72Zm10.56,0c.65.76.29.55,1.44,1C410.17,71.71,411,72.34,409.44,72Zm12.48.48c-.52-.37-.44-.3-1.44-.48C421,72.31,420.92,72.25,421.92,72.43Zm144.48,0V72c-.33.37-.63,1.07-1,1.44.52.36.44.3,1.44.48C566.69,72.88,566.76,72.94,566.4,72.43Zm-300.48,1c.56.38.8.38,1.92.48C267.28,73.48,267,73.48,265.92,73.39Zm10.08.48c-.94-.64-3.13-.55-4.8-.48C272.14,74,274.33,73.93,276,73.87Zm1-.48a6.25,6.25,0,0,0,3.36.48A6.15,6.15,0,0,0,277,73.39Zm3.84,0c.94.64,3.13.54,4.8.48C284.66,73.23,282.47,73.32,280.8,73.39Zm6.24.48v-.48h-1C286.57,73.77,286.2,73.56,287,73.87Zm7.68,0c-1.25-.84-4.67-.56-6.72-.48C289.25,74.22,292.67,73.94,294.72,73.87Zm-96.48,0h-1C198,74.45,197.67,74.64,198.24,73.87Zm15.84,0c.52.36.44.3,1.44.48C215,74,215.08,74.05,214.08,73.87Zm31.68.48a3.92,3.92,0,0,0-2.4-.48A4.07,4.07,0,0,0,245.76,74.35Zm165.12,1c-.42-1.55.26-.74-1-1.44C409.94,75.21,409.31,74.58,410.88,75.31Zm11-.48v-1h-1C421,75.17,420.61,74.47,421.92,74.83Zm-113.76-.48c.52.36.44.3,1.44.48C309.08,74.46,309.16,74.53,308.16,74.35Zm22.56,0c.52.36.44.3,1.44.48C331.64,74.46,331.72,74.53,330.72,74.35Zm68.16,0c.52.36.44.3,1.44.48C399.8,74.46,399.88,74.53,398.88,74.35ZM236.64,76.27c-6.6-.12-12.65-.42-20.64-.48v1h29.76v-.48C243.68,75.63,240,76.33,236.64,76.27Zm71.52,0v1h1.44C308.89,76,309.72,76.66,308.16,76.27Zm22.56,0v1h1.44C331.45,76,332.28,76.66,330.72,76.27Zm68.16,0v1h1.44C399.61,76,400.44,76.66,398.88,76.27Zm23,1c-.71-1.2.12-.57-1.44-1C421.13,77,420.77,76.82,421.92,77.23ZM516,78.67c-.41-1.64-.24-1.22-1.44-1.92-.31.83-.09.47-.48,1,.37.33,1.07.63,1.44,1Zm-224.16-1a4.07,4.07,0,0,0,2.4.48A3.92,3.92,0,0,0,291.84,77.71Zm213.6,1.44c.48-.71-.31-.82-.48-1C504,78.29,504.91,78.91,505.44,79.15Zm1-1v1h.48C506.57,78.32,506.79,78.68,506.4,78.19ZM301,78.67H299v1H301Zm7.2,1h1.44c-.71-1.2.12-.57-1.44-1Zm22.56,0h1.44c-.71-1.2.12-.57-1.44-1Zm69.6-.48c-.52-.37-.44-.3-1.44-.48C399.4,79,399.32,79,400.32,79.15Zm21.12.48h.48c-.71-1.2.12-.57-1.44-1Zm92.64-1v1.44h.48C514.37,79.12,514.44,79.18,514.08,78.67Zm1.44,1.92H516c-.19-1-.12-.93-.48-1.44Zm-52.32-1c.52.36.44.3,1.44.48C464.12,79.74,464.2,79.81,463.2,79.63Zm7.2.48c-.87-.6-2.75-.54-4.32-.48C467,80.22,468.83,80.16,470.4,80.11Zm-205,0c.87.59,2.75.53,4.32.48C268.89,80,267,80.05,265.44,80.11Zm5.28,0c1.1.73,3.9.55,5.76.48C275.38,79.85,272.58,80,270.72,80.11Zm30.24,1c-8.32,0-14-.52-21.12-.48.49.38.12.17,1,.48v.48l-1.44.48v-.48c0-.62-.32-.25.48-1v-.48h-2.4c-.39,1,.07,1-.48,1.92v.48c1.49,0,3,.07,3.84-.48,6.41-.11,16.27-1.19,19.68,1.92v1H301c-.09-1.72-.37-2.62,0-3.36Zm125.28,0v-.48a6.6,6.6,0,0,0-2.4-.48C423.93,81.36,423.86,81.08,426.24,81.07Zm0-1a6.25,6.25,0,0,0,3.36.48A6.15,6.15,0,0,0,426.24,80.11Zm32.16.48c-1.1-.74-3.9-.55-5.76-.48C453.74,80.84,456.54,80.66,458.4,80.59ZM386.4,82V80.59c-9.51.16-20.47.5-30.72.48v1C367.09,82,375.93,81.61,386.4,82Zm36.48-1.44h-9.6c1.35.94,7.34,1.39,8.64.48h1Zm-68.64.48H308.16v1.44c7.85-2.83,21.23-.48,31.2-.48h14.88Zm-107,1.44h-1c.49.38.12.17,1,.48Zm5.28.48H253v-.48h-3.84A4.12,4.12,0,0,0,252.48,83Zm4.8.48v-1h-3.84c.67.44,2.69.53,3.36,1Zm8.64-1c.56.38.8.38,1.92.48C267.28,82.6,267,82.6,265.92,82.51Zm-36.48,1c-.56-.39-.8-.39-1.92-.48C228.08,83.37,228.32,83.37,229.44,83.47Zm37,1c.52.36.44.3,1.44.48C267.32,84.54,267.4,84.61,266.4,84.43Zm37.92,0c.49.38.12.17,1,.48v-.48Zm1.44,0c.52.36.44.3,1.44.48C306.68,84.54,306.76,84.61,305.76,84.43Zm46.08,0c.52.36.44.3,1.44.48C352.76,84.54,352.84,84.61,351.84,84.43Zm1.92,0c.56.38.8.38,1.92.48C355.12,84.52,354.88,84.52,353.76,84.43ZM224.64,86.35l1-1a6.6,6.6,0,0,0-2.4-.48c.31.83.09.47.48,1S223.8,86,224.64,86.35Zm28.32-1c-.52-.37-.44-.3-1.44-.48C252,85.27,252,85.21,253,85.39Zm47,3.84h.48l.48-.48c0-2.22.17-2.81-1-3.84C299.6,86.32,299.74,86.91,300,89.23Zm122.88-2.4-1.44-1.44C421.29,86.33,422,88.48,422.88,86.83Zm-153.12.48c-.8-.55-2.36-.53-3.84-.48C266.72,87.37,268.28,87.35,269.76,87.31Zm1.44-.48c.94.64,3.13.54,4.8.48C275.06,86.67,272.87,86.76,271.2,86.83Zm6.24,0c2.66,1.71,11.1.56,14.88.48C289.66,85.59,281.22,86.75,277.44,86.83Zm15.84,0c.87.59,2.75.53,4.32.48C296.73,86.71,294.85,86.77,293.28,86.83Zm9.6,0a5.09,5.09,0,0,0,2.88.48A5,5,0,0,0,302.88,86.83Zm58.08.48c-.52-.37-.44-.3-1.44-.48C360,87.19,360,87.13,361,87.31Zm110.4,1.92a3.37,3.37,0,0,0-1-1.92c-.52-.37-.44-.3-1.44-.48-.49.38-.12.17-1,.48.76.9,2,1.14,2.88,1.92ZM247.2,87.79v-.48h-1C246.73,87.69,246.36,87.48,247.2,87.79Zm.48-.48c.49.38.12.17,1,.48v-.48Zm-16.32,4.32v1.44c3.93-.46,16.36-1.09,18.72-.48,4.49,1.14,8.29-2.35,11,0h1.44l-.48-.48c-1.11-1.46-8.17-3.44-11.52-3.36V87.31c-3.3,1-10.17,3.54-12.48,3.36l-.48-1a9.53,9.53,0,0,1,2.88,0c-.64-.92-.64-.41-1-1.92-6.63,0-10.63,1.4-15.84,2.4a5.66,5.66,0,0,0,1,1.44c-.66,1.59-.72,1.4-2.88,1.44v1c1.58,0,3.44.11,4.32-.48h3.84v-1a5.86,5.86,0,0,0-1.92-.48c-.31-.83-.09-.47-.48-1v-.48c2.86.19,2.26.6,4.8.48-.52-.37-.44-.3-1.44-.48v-.48c2.59-.08,3.16-.3,3.36,1l1.44-.48.48.48-1,1C234.72,92.41,233.21,91.73,231.36,91.63ZM252,87.31c.52.36.44.3,1.44.48C252.92,87.42,253,87.49,252,87.31Zm4.32.48c-.56-.39-.8-.39-1.92-.48C255,87.69,255.2,87.69,256.32,87.79Zm83.52,1.44v-.48h-1C339.37,89.13,339,88.92,339.84,89.23Zm-58.08,0,1,1h1.44v-.48Zm12,.48a6.15,6.15,0,0,0-3.36-.48A6.25,6.25,0,0,0,293.76,89.71Zm2.88,0c-.56-.39-.8-.39-1.92-.48C295.28,89.61,295.52,89.61,296.64,89.71Zm-74.88,0h-1.44v1.44h1.44Zm61.92,1c.56.38.8.38,1.92.48C285,90.76,284.8,90.76,283.68,90.67ZM201.12,95c1-.19.92-.12,1.44-.48s.18-.12.48-1a11.19,11.19,0,0,0-3.84-.48Zm63.36-1.44-1.92-.48v1h1.92Zm112.8,0c-2.57-1.66-10.73-.56-14.4-.48C363.81,94.48,373.87,93.65,377.28,93.55Zm.48-.48c1.58,1,6.19.55,8.64.48C384.82,92.51,380.21,93,377.76,93.07ZM457.44,95l.48,1c1.53.29,2.9.27,3.84.48l.48-1.44c.39-.5.18-.12.48-1a12.32,12.32,0,0,0-4.8-1C458.2,94.46,458.48,94,457.44,95Zm13-.48V94a18.83,18.83,0,0,0-5.76-1c1,.79,3.17.72,4.32,1.44Zm134.88,2.4c.52.36.44.3,1.44.48C606.2,97,606.28,97.09,605.28,96.91Zm-245.76,5.76h2.4c.05-1.48.28-1.94,0-2.4a5,5,0,0,0-1-2.88h-1c.14,2.08.57,2.82-.48,4.32ZM612,100.75v-2.4a6.12,6.12,0,0,0-5.28,2.88h-.48c.68.56,1.76.85,2.4,1.44C610.64,102.28,610.66,101.63,612,100.75Zm5.76-1.92a5,5,0,0,0-2.88-.48C615.55,99.8,614.85,99.05,617.76,98.83Zm6.72,1.44c-1,.1-.05.72.48,1C625.44,100.52,624.65,100.41,624.48,100.27Zm-23,1h.48c-.52-.37-.44-.3-1.44-.48-.65.76-.29.55-1.44,1C600.11,102.31,600.55,102,601.44,101.23Zm19.68,1v-1h-2.88c-.49.38-.12.17-1,.48v.48Zm-187.68.48h.48c.21-.94-.21-.62-.48-1l-1,1.44C433.09,103.67,433.34,102.86,433.44,102.67Zm182.4-.48c.52.36.44.3,1.44.48C616.76,102.3,616.84,102.37,615.84,102.19Zm-89.28,9.12c.52-.23-.3-.77,1-1,3.25-.51,5.77,1.94,8.16.48h1c-1.82-3.06-10.08-2.11-13.92-2.88a83.42,83.42,0,0,1-8.64-2.4l-4.32.48c-2-.54-3.23-2.28-5.28-2.88l-.48.48c.11,1.64.4,2.08,0,2.88v1h2.4v1.44l.48.48h2.88c-.37-.33-1.07-.64-1.44-1-.39-.5-.18-.12-.48-1l.48-.48,3.84.48.48.48c-.42,1.13-.18.79-1,1.44v.48C515.54,110,523,112.86,526.56,111.31Zm81.12-6.24c-.52-.37-.44-.3-1.44-.48C606.76,105,606.68,104.89,607.68,105.07Zm-37.92.48c.8.54,2.36.52,3.84.48C572.8,105.48,571.24,105.5,569.76,105.55Zm4.8.48c2.37,1.64,13.57,1.83,15.84,0h.48v-.48h-4.32C584.12,107.18,578.71,106.12,574.56,106Zm-197.28,1h-1v1h1Zm-12.48.48v1h.48C365,107.6,365.19,108,364.8,107.47Zm230.4,0h-1c.49.38.12.17,1,.48Zm-139.68,19.2-.48,6.24c-1,3.31-3.37,7.31-4.32,10.56-.68,2.32.66,3.37,0,5.28-.36,1-1.31,1.46-2.4,1.92,0,0,.11,1.88.48,1l.48-.48c.72,2.15.12,4.08,0,6.72,1.85-2.28.63-5.48,1.44-7.68.45-1.23,2.35-2.24,2.88-3.36,1.76-3.77,1.06-9.88,2.4-13.92,1.05-3.17,1.73-8.11,3.36-11.52.54-1.13,2.35-1.27,2.88-2.4,1.23-2.64.89-4.64,2.4-6.72l4.32-3.84.48-.48h-1C463.4,113.27,458.28,119,455.52,126.67ZM503,108h-1.92a16.22,16.22,0,0,1-2.88,1v1l4.8-1Zm-40.8,1.44h-1c.49.38.12.17,1,.48Zm-85,1.44c-.31-.83-.09-.47-.48-1v1Zm82.56-.48v1h.48C460,110.48,460.23,110.84,459.84,110.35Zm27.36.48c-.56-.39-.8-.39-1.92-.48-.49.38-.12.17-1,.48C485.37,111.42,485.63,111,487.2,110.83Zm60.48.48h.48v-.48h-3.84C544.44,111.73,546,112.61,547.68,111.31Zm-87.84,1c-.63-1.17.22-.34-1-1-1.49,2.81-4.3,4.45-5.76,7.2-1.7,3.2-1.79,7.61-3.84,10.56V131c1.64-2.09,1.34-4.89,2.4-7.68C453.17,119.39,456.53,114.51,459.84,112.27Zm96.48-1c-2.76,0-4.67.12-6.24,1v1.92c4.47-.33,8.3-.44,13-.48.19-1,.12-.93.48-1.44v-1c-2.57.44-5,2.85-6.72,1.92h-1c.44-1,.42-.7,1-1.44Zm16.32,1.92a9.59,9.59,0,0,0-6.24-1.92C566.83,112.44,569.35,113.41,572.64,113.23ZM493,111.79h-1c.49.38.12.17,1,.48Zm9.12,0c.52.36.44.3,1.44.48C503,111.9,503.08,112,502.08,111.79Zm2.4,0c.56.38.8.38,1.92.48C505.84,111.88,505.6,111.88,504.48,111.79Zm-13,1.44H492c-.52-.37-.44-.3-1.44-.48C490,113.67,490.78,113.55,491.52,113.23Zm6.72.48h1a4.78,4.78,0,0,0-2.88-1,5.66,5.66,0,0,0,1,1.44v.48Zm-19.2,1h.48c.21-.94-.21-.62-.48-1a9.18,9.18,0,0,1-1.44,1.92v1.44h.48C478.46,115.81,478.68,115.93,479,114.67Zm15.36-.48c-.52-.37-.44-.3-1.44-.48-.19,1-.12.92-.48,1.44v.48h1A5.32,5.32,0,0,1,494.4,114.19Zm25-.48a5.09,5.09,0,0,0,2.88.48A5,5,0,0,0,519.36,113.71Zm-36.48,1,.48-.48h-1C482,114.69,482.55,114.73,482.88,114.67Zm-1,1v-.48c-1.84.67-1.73,1.65-2.88,2.88-.52.36-.44.3-1.44.48v-1.44h-.48a7.47,7.47,0,0,1-1,1.92h.48c.78,1.55.77.24,1.92,1h1a24.9,24.9,0,0,0-2.4,11C480,126.8,478.54,119.22,481.92,115.63Zm31.2,0v-.48h-1C512.65,115.53,512.28,115.32,513.12,115.63Zm-23,.48h-1L487.68,118C488.52,118.69,489.89,116.41,490.08,116.11Zm32.16.48v1h.48C522.41,116.72,522.63,117.08,522.24,116.59ZM513.12,118c.48-.71-.31-.82-.48-1C511.63,117.17,512.59,117.79,513.12,118Zm3.84,0c-1.25,1-3.15,1.32-4.32,2.4h-.48v.48c2.91-.6,4.09-2.2,7.68-2.4A5,5,0,0,0,517,118Zm-66.72,2.4a6.2,6.2,0,0,0,.48-1.92h-2.4a5.66,5.66,0,0,0,1,1.44C449.77,120.33,449.4,120.12,450.24,120.43Zm46.56,0c-.52-.37-.44-.3-1.44-.48a5.66,5.66,0,0,1-1,1.44v1h1A4.58,4.58,0,0,1,496.8,120.43Zm-8.64.48c-1.66,2.59-1.79,4.26-1.92,8.16C487.33,127.76,488.67,121.93,488.16,120.91Zm4.32,1.92-3.84,7.2v1h.48C490.14,129,493.75,125,492.48,122.83Zm29.76,1.44c-.52-.37-.44-.3-1.44-.48C521.32,124.15,521.24,124.09,522.24,124.27Zm-13.44,1c.31-.72.6-.21,0-1l-1,1.44C508.45,126.23,508.7,125.42,508.8,125.23Zm6.24,1.92a6.46,6.46,0,0,0,3.36-1.92h1c-.52-.37-.44-.3-1.44-.48-.77.76-1.71,1-2.4,1.92H515Zm-13.92,1c.63,1.16-.22.34,1,1,.49.38.12.17,1,.48l1.92-2.88c.31-.72.6-.21,0-1A8.1,8.1,0,0,1,501.12,128.11Zm12.48,4.32c.48-.71-.31-.82-.48-1C512.11,131.57,513.07,132.19,513.6,132.43Zm-37,1h.48c-.31-.83-.09-.47-.48-1Zm10.56,1.44c.18-1.36.45-1,0-1.92a6.12,6.12,0,0,0-.48,1.92Zm-11,.48h.48c-.19-1-.12-.93-.48-1.44Zm-24.48.48c-.42-1.55.26-.74-1-1.44-.57,2.65-1.71,1.76-2.88,3.36-1.72,2.35-1.61,5.89-3.36,8.16v1h1C447.18,143,448.59,138.24,451.68,135.79Zm34.08,0a3.4,3.4,0,0,1-1,1.92v1h.48C485.83,137.47,486.43,137,485.76,135.79Zm-60,72c-1,.1-.05.72.48,1C426.72,208,425.93,207.93,425.76,207.79Z"/><path class="cls-1" d="M362.49,39.22a18.05,18.05,0,0,0,4.26.76,4.79,4.79,0,0,0,1.85-.06A4.88,4.88,0,0,0,371,37.74a5.66,5.66,0,0,0,1-1.87,5.18,5.18,0,0,0-.56-3.23A21.78,21.78,0,0,0,367.75,27a13.2,13.2,0,0,1,1.61,5.16,6.05,6.05,0,0,1-.45,4.06,4.41,4.41,0,0,1-4.65,1.59c-1.95-.41-6.61-4.94-7.95-3.18A15,15,0,0,0,362.49,39.22Z"/><path class="cls-1" d="M364.44,28.69A4.84,4.84,0,0,0,365.93,25c.1.93-6.74,5.25-7.51,6.37C360.23,32.48,363.21,30,364.44,28.69Z"/><path class="cls-1" d="M401.94,23a17.32,17.32,0,0,0,9.36,3.65c-.23-1.79-2.29-2.65-4.05-3a41.23,41.23,0,0,0-5.74-.88"/><path class="cls-1" d="M410.72,28.64c-1.56.8-1.51,3-2.28,4.6A4.42,4.42,0,0,1,404,35.62a3.89,3.89,0,0,0,3.8-1.12c1.38-1.54,1.55-4.2,3.46-5,.41-.18.87-.24,1.27-.45a3.44,3.44,0,0,0,1.67-2.57A18.33,18.33,0,0,1,410.72,28.64Z"/><path class="cls-1" d="M414.23,44a9.16,9.16,0,0,0,2.45-1.84,6,6,0,0,0,1.38-1.64,2,2,0,0,0-.06-2.05l2.64-.73c.2-.62-.27-1.24-.74-1.69a12.37,12.37,0,0,0-6.9-3.22c-.27,0-.62,0-.73.23a.64.64,0,0,0,.09.55,4.8,4.8,0,0,0,3,2.35,1.14,1.14,0,0,1,.65.31.91.91,0,0,1,.17.43,6.16,6.16,0,0,1-2,5.8c-1.62,1.35-3.7,1-5.45,1.58A8.81,8.81,0,0,0,414.23,44Z"/><path class="cls-1" d="M399.52,53.63c-1.58.5-3.26.61-4.88,1A7.07,7.07,0,0,0,390.38,57c-1.19,1.58-1.22,3.72-1.19,5.7l2.75-4.21A7.74,7.74,0,0,1,393.08,57a8.27,8.27,0,0,1,3.69-1.58,17.85,17.85,0,0,0,7-3.15c1.64-1.34,3.38-3.71,3.05-5.9C404.15,48.71,403.77,52.3,399.52,53.63Z"/></g></g></svg>